<?xml version="1.0" encoding="UTF-8" standalone="no"?>
<!DOCTYPE svg PUBLIC "-//W3C//DTD SVG 1.1//EN" "http://www.w3.org/Graphics/SVG/1.1/DTD/svg11.dtd">
<svg width="72.00" height="72.00" viewBox="0.00 0.00 300.00 300.00" xmlns="http://www.w3.org/2000/svg" xmlns:xlink="http://www.w3.org/1999/xlink">
<g stroke-linecap="round" transform="translate(6.00, 2.00)" id="Calque_2">
<path d="M198.39,47.93 C193.18,45.27 177.14,37.07 171.91,35.53 C167.80,34.35 159.71,33.47 155.95,33.80 C152.20,34.16 144.96,36.10 141.38,37.70 C137.91,39.28 131.02,43.58 128.23,45.87 C125.52,48.12 120.88,53.32 119.12,56.30 C117.33,59.38 115.00,66.17 114.47,69.81 C114.02,73.17 113.95,81.00 114.32,84.69 C114.75,88.65 116.31,95.44 117.68,99.41 C120.00,105.99 128.13,120.54 131.91,127.20 C135.45,133.26 149.02,153.74 149.56,154.56 C153.01,159.66 161.76,172.80 164.88,179.00 C169.00,187.36 173.87,199.87 175.19,207.97 C175.64,210.81 176.15,218.41 176.13,222.18 C176.09,226.80 175.40,233.54 174.34,237.05 C173.25,240.52 169.83,246.70 167.56,249.37 C165.28,251.98 159.80,256.56 156.48,258.63 C152.95,260.80 145.80,263.98 142.12,264.96 C138.53,265.89 130.99,266.55 127.00,266.13 C118.77,265.20 109.64,260.94 96.64,254.29 C95.45,253.69 93.29,252.59 92.32,252.09" fill="none" stroke="rgb(0, 0, 0)" stroke-width="7.00" stroke-opacity="1.00" stroke-linejoin="miter"/>
<path d="M77.54,92.83 C74.12,105.95 65.83,137.93 61.93,154.16 C59.52,165.15 56.78,181.60 57.80,186.67 C58.34,189.14 60.59,193.93 62.66,196.10 C64.91,198.41 71.40,201.86 74.88,202.57 C76.96,202.96 79.51,202.82 81.61,202.21 C85.12,201.11 91.71,196.97 94.04,194.39 C96.17,191.96 98.57,186.83 99.19,184.23 C99.84,181.31 99.60,174.23 98.57,168.58 C96.03,154.82 79.24,99.92 78.11,96.22" fill="none" stroke="rgb(0, 0, 0)" stroke-width="7.00" stroke-opacity="1.00" stroke-linejoin="miter"/>
<path d="M213.46,215.17 C216.88,202.05 225.18,170.07 229.08,153.84 C231.48,142.85 234.18,126.47 233.12,121.30 C232.61,118.95 230.32,113.86 227.98,111.47 C226.66,110.17 223.18,107.89 221.23,107.01 C219.38,106.22 215.03,105.13 213.46,105.10 C211.00,105.10 203.10,107.94 200.28,109.95 C197.49,111.99 194.04,116.98 192.97,119.91 C191.97,122.81 191.23,129.02 191.71,133.78 C192.44,140.64 197.11,159.63 199.37,167.71 C204.51,184.52 211.28,206.56 212.89,211.78" fill="none" stroke="rgb(0, 0, 0)" stroke-width="7.00" stroke-opacity="1.00" stroke-linejoin="miter"/>
</g>
</svg>
