<?xml version="1.0" encoding="UTF-8" standalone="no"?>
<!DOCTYPE svg PUBLIC "-//W3C//DTD SVG 1.1//EN" "http://www.w3.org/Graphics/SVG/1.1/DTD/svg11.dtd">
<svg width="300.00" height="300.00" viewBox="0.00 0.00 300.00 300.00" xmlns="http://www.w3.org/2000/svg" xmlns:xlink="http://www.w3.org/1999/xlink">
<g stroke-linecap="round" id="Calque_2">
<path d="M106.97,161.95 C109.42,161.98 114.74,163.83 116.78,165.56 C119.00,167.51 121.45,171.75 122.03,174.65 C122.50,177.28 121.45,182.82 120.25,184.95 C119.00,187.06 114.74,190.74 112.22,191.64 C109.42,192.59 104.52,192.59 101.72,191.64 C99.20,190.74 94.94,187.06 93.69,184.95 C92.49,182.82 91.44,177.28 91.91,174.65 C92.49,171.75 94.94,167.51 97.16,165.56 C99.20,163.83 104.52,161.98 106.97,161.95 Z" fill="none" stroke="rgb(0, 0, 0)" stroke-width="7.00" stroke-opacity="1.00" stroke-linejoin="round"/>
<path d="M166.37,109.00 C165.13,111.11 160.86,114.79 158.34,115.69 C155.55,116.64 150.64,116.64 147.85,115.69 C145.33,114.79 141.06,111.11 139.82,109.00 C138.61,106.87 137.56,101.33 138.04,98.70 C138.61,95.80 141.06,91.56 143.28,89.61 C145.33,87.88 150.64,86.03 153.10,86.00 C155.55,86.03 160.86,87.88 162.91,89.61 C165.13,91.56 167.58,95.80 168.15,98.70 C168.63,101.33 167.58,106.87 166.37,109.00 Z" fill="none" stroke="rgb(0, 0, 0)" stroke-width="7.00" stroke-opacity="1.00" stroke-linejoin="round"/>
<path d="M182.53,186.92 C181.32,184.79 180.27,179.25 180.75,176.62 C181.32,173.72 183.77,169.48 186.00,167.53 C188.04,165.80 193.36,163.95 195.81,163.93 C198.26,163.95 203.57,165.80 205.62,167.53 C207.84,169.48 210.29,173.72 210.87,176.62 C211.34,179.25 210.29,184.79 209.08,186.92 C207.84,189.03 203.57,192.71 201.06,193.61 C198.26,194.56 193.36,194.56 190.56,193.61 C188.04,192.71 183.77,189.03 182.53,186.92 Z" fill="none" stroke="rgb(0, 0, 0)" stroke-width="7.00" stroke-opacity="1.00" stroke-linejoin="round"/>
<path d="M114.30,163.95 L143.29,113.97" fill="none" stroke="rgb(0, 0, 0)" stroke-width="7.00" stroke-opacity="1.00" stroke-linejoin="round"/>
<path d="M160.97,114.35 L189.77,164.45" fill="none" stroke="rgb(0, 0, 0)" stroke-width="7.00" stroke-opacity="1.00" stroke-linejoin="round"/>
<path d="M180.60,179.57 L122.81,179.46" fill="none" stroke="rgb(0, 0, 0)" stroke-width="7.00" stroke-opacity="1.00" stroke-linejoin="round"/>
<path d="M39.66,177.95 C41.26,177.74 45.94,177.21 46.92,176.86 C48.77,176.18 51.27,173.61 51.90,171.89 C52.51,170.00 52.80,166.09 52.35,164.62 C51.85,163.14 49.77,161.16 48.30,160.63 C45.53,159.74 36.80,160.11 33.99,160.95 C32.07,161.57 28.76,163.36 27.46,164.55 C24.93,166.97 22.49,173.65 21.98,177.97 C21.52,182.45 22.26,189.95 23.66,192.95 C25.13,195.94 30.43,200.76 34.11,202.62 C37.53,204.31 44.38,206.02 48.21,206.32 C52.08,206.58 59.54,205.94 63.57,204.88 C70.75,202.92 80.71,197.31 91.74,190.46 C92.37,190.06 93.01,189.67 93.64,189.28" fill="none" stroke="rgb(0, 0, 0)" stroke-width="7.00" stroke-opacity="1.00" stroke-linejoin="miter"/>
<path d="M178.84,44.37 C178.96,45.81 179.18,49.60 179.23,50.06 C179.52,52.39 180.73,55.16 182.06,56.49 C183.96,58.27 191.03,59.80 194.75,59.50 C196.53,59.31 199.67,58.28 201.12,57.34 C202.56,56.36 204.93,53.46 205.62,51.84 C206.28,50.17 206.66,46.93 206.45,45.11 C205.93,41.40 202.75,34.48 200.11,31.90 C198.02,29.92 191.94,27.09 188.03,26.14 C184.11,25.22 178.22,24.84 174.32,25.27 C170.33,25.77 164.49,28.07 161.68,30.48 C159.49,32.42 155.27,38.51 153.62,42.12 C151.99,45.78 149.88,53.81 149.40,58.04 C148.73,64.32 149.23,79.46 149.37,83.79" fill="none" stroke="rgb(0, 0, 0)" stroke-width="7.00" stroke-opacity="1.00" stroke-linejoin="miter"/>
<path d="M230.04,236.55 C230.04,235.42 230.11,232.14 229.92,231.43 C229.54,230.07 227.57,228.09 226.13,227.50 C224.56,226.91 221.20,226.32 219.68,226.41 C218.13,226.54 215.58,227.68 214.56,228.69 C213.58,229.73 212.08,232.66 211.71,234.27 C211.07,237.37 212.45,244.16 213.87,246.93 C214.65,248.40 216.80,251.02 218.03,251.95 C220.57,253.82 227.78,255.45 231.73,255.22 C235.50,254.94 242.84,251.86 245.88,249.46 C249.07,246.86 252.49,241.01 253.35,237.16 C254.10,233.53 253.88,225.91 252.87,222.11 C252.04,219.11 248.70,212.19 246.61,209.17 C244.35,205.99 238.57,200.23 235.18,197.72 C230.12,194.03 216.70,186.86 212.86,184.80" fill="none" stroke="rgb(0, 0, 0)" stroke-width="7.00" stroke-opacity="1.00" stroke-linejoin="miter"/>
</g>
</svg>
