<?xml version="1.0" encoding="UTF-8" standalone="no"?>
<!DOCTYPE svg PUBLIC "-//W3C//DTD SVG 1.1//EN" "http://www.w3.org/Graphics/SVG/1.1/DTD/svg11.dtd">
<svg width="300.00" height="300.00" viewBox="0.00 0.00 300.00 300.00" xmlns="http://www.w3.org/2000/svg" xmlns:xlink="http://www.w3.org/1999/xlink">
<g stroke-linecap="round" id="Calque_2">
<path d="M109.70,239.61 C98.51,237.56 88.43,234.51 80.97,230.64 C77.49,228.81 71.45,225.09 68.44,222.89 C65.45,220.68 59.90,215.42 57.47,212.49 C55.19,209.71 50.71,202.89 49.29,200.09 C47.87,197.23 45.20,189.81 44.28,186.13 C43.42,182.62 42.31,175.11 42.28,171.32 C42.27,163.56 44.93,148.49 47.63,141.33 C50.24,134.53 57.33,121.46 61.90,115.19 C66.99,108.26 77.35,97.68 84.43,92.25 C88.41,89.22 105.51,77.71 106.32,77.31" fill="none" stroke="rgb(0, 0, 0)" stroke-width="6.81" stroke-opacity="1.00" stroke-linejoin="round"/>
<path d="M190.53,60.87 C195.60,61.53 200.10,62.51 204.11,63.98 C213.13,67.30 225.95,73.07 231.54,77.14 C234.56,79.36 239.47,83.92 241.91,86.70 C244.05,89.17 248.23,94.91 250.02,98.19 C251.89,101.65 254.91,109.05 256.01,112.86 C257.23,117.18 258.18,123.36 258.34,127.68 C258.58,134.98 256.54,149.41 254.22,156.35 C251.90,163.18 245.32,176.33 241.13,182.30 C236.63,188.66 225.83,200.77 220.31,205.50 C214.29,210.62 201.56,218.71 196.50,221.90" fill="none" stroke="rgb(0, 0, 0)" stroke-width="6.81" stroke-opacity="1.00" stroke-linejoin="round"/>
<path d="M104.85,215.01 C104.07,214.80 86.71,205.74 81.84,201.23 C79.28,198.82 75.35,193.60 73.54,190.53 C71.87,187.65 69.36,181.49 68.46,178.24 C67.60,175.07 66.54,168.30 66.54,164.87 C66.57,161.32 67.32,154.42 68.07,150.83 C68.81,147.37 71.28,140.24 72.74,136.98 C75.89,130.01 84.39,118.52 89.96,112.52 C96.18,105.98 102.69,101.26 104.65,99.88" fill="none" stroke="rgb(0, 0, 0)" stroke-width="5.27" stroke-opacity="1.00" stroke-linejoin="round"/>
<path d="M195.13,83.42 C197.58,84.39 204.61,87.20 207.30,88.65 C210.73,90.53 216.56,95.12 219.10,97.67 C221.67,100.28 226.14,106.08 227.83,109.16 C229.52,112.32 231.97,118.93 232.83,122.55 C233.63,126.05 234.10,133.48 233.91,137.21 C233.69,141.06 232.42,148.50 231.40,151.92 C230.36,155.32 227.76,161.89 226.17,164.93 C222.78,171.33 214.59,181.31 206.57,189.76 C203.94,192.49 201.10,194.74 197.66,197.15" fill="none" stroke="rgb(0, 0, 0)" stroke-width="5.27" stroke-opacity="1.00" stroke-linejoin="round"/>
<path d="M126.82,216.76 C126.82,216.76 126.67,216.39 126.67,216.39" fill="none" stroke="rgb(0, 0, 0)" stroke-width="5.27" stroke-opacity="1.00" stroke-linejoin="round"/>
<path d="M109.90,198.42 C105.58,195.98 101.88,193.48 99.31,190.60 C96.73,187.65 92.83,181.54 91.61,178.20 C90.49,175.03 89.26,167.59 89.35,163.88 C89.47,159.97 90.75,152.62 91.82,149.32 C92.98,145.81 95.57,140.01 97.43,136.99 C100.05,132.79 109.36,121.56 112.46,118.87" fill="none" stroke="rgb(0, 0, 0)" stroke-width="5.27" stroke-opacity="1.00" stroke-linejoin="round"/>
<path d="M190.01,103.03 C192.52,104.29 194.23,105.49 198.03,108.82 C201.26,111.71 205.47,116.58 207.02,119.48 C208.47,122.25 210.42,128.96 210.81,132.02 C211.18,135.15 210.95,142.52 210.31,146.07 C209.64,149.63 207.03,157.09 205.30,160.67 C201.82,167.78 196.46,174.00 191.03,179.92" fill="none" stroke="rgb(0, 0, 0)" stroke-width="5.27" stroke-opacity="1.00" stroke-linejoin="round"/>
<path d="M128.21,206.53 C128.21,206.53 127.69,206.78 127.69,206.78" fill="none" stroke="rgb(0, 0, 0)" stroke-width="5.27" stroke-opacity="1.00" stroke-linejoin="round"/>
<path d="M149.09,89.70 C149.32,91.37 149.89,96.20 150.25,97.19 C150.98,99.06 153.72,101.38 155.54,101.83 C157.48,102.23 161.67,102.10 163.54,101.54 C165.41,100.94 168.55,98.96 169.81,97.65 C171.04,96.31 173.18,93.04 173.87,91.38 C174.60,89.53 175.13,85.78 175.02,83.64 C174.79,80.51 171.46,72.21 169.08,69.79 C167.64,68.37 164.18,66.67 161.82,66.06 C159.20,65.45 151.92,65.82 147.74,66.81 C142.98,67.98 136.25,71.55 133.86,74.24 C131.57,76.90 129.09,83.30 128.75,87.01 C128.45,90.90 129.66,99.69 131.18,103.15 C132.82,106.72 137.82,111.77 140.89,113.39 C143.85,114.89 150.86,116.59 155.05,116.83 C159.60,117.05 168.02,116.13 171.69,114.94 C175.31,113.73 181.36,109.85 183.75,107.22 C186.12,104.54 189.59,97.76 190.67,93.72 C191.70,89.75 192.61,80.85 192.41,77.06 C192.18,73.34 190.42,66.44 188.78,63.40 C187.05,60.31 182.03,55.20 178.80,53.23 C175.86,51.48 168.35,48.39 164.79,47.44 C160.91,46.43 154.20,45.71 150.25,45.89 C146.58,46.08 139.03,47.54 135.53,48.74 C131.95,49.99 125.56,53.55 122.67,55.90 C119.89,58.20 115.44,63.88 113.68,66.94 C111.88,70.13 108.81,77.76 107.90,81.42 C106.98,85.24 106.49,92.90 106.93,96.62 C107.38,100.16 109.47,106.98 110.92,110.14 C113.89,116.55 123.80,129.27 129.87,135.21 C135.49,140.67 148.50,150.71 155.18,155.00 C158.81,157.32 167.82,162.50 169.16,163.31 C172.44,165.33 178.49,169.94 181.04,172.36 C183.51,174.73 188.00,180.20 189.82,183.27 C191.72,186.55 194.30,193.83 194.90,197.68 C195.44,201.26 195.40,209.66 194.97,213.37 C194.52,217.10 192.66,224.55 191.52,227.27 C190.04,230.71 185.55,237.49 182.82,240.42 C180.10,243.29 173.53,248.39 170.11,250.33 C166.75,252.20 159.44,254.92 155.57,255.58 C151.63,256.21 143.74,256.35 139.59,255.86 C135.18,255.30 127.82,253.11 124.60,251.38 C121.26,249.53 116.34,244.98 114.23,241.80 C112.25,238.75 109.52,231.67 108.65,227.38 C107.86,223.39 107.50,216.04 107.90,212.48 C108.35,208.93 110.83,202.05 112.79,198.93 C114.75,195.88 120.11,190.38 123.05,188.26 C125.87,186.27 132.18,183.43 135.73,182.77 C139.39,182.13 146.94,182.54 150.99,183.57 C154.77,184.57 161.32,187.75 163.64,189.70 C166.38,192.07 170.31,198.19 171.50,201.96 C172.59,205.55 173.22,212.60 172.70,215.39 C172.01,218.81 168.61,224.53 165.81,227.05 C163.18,229.35 157.07,232.56 153.55,233.39 C150.04,234.18 141.92,234.34 138.83,233.47 C137.21,232.99 134.31,231.45 133.11,230.44 C130.71,228.32 127.65,221.96 126.97,217.79 C126.69,215.89 126.65,212.60 126.89,210.86 C127.16,209.18 128.55,205.86 129.71,204.35 C130.95,202.79 134.45,200.39 136.74,199.41 C138.59,198.67 142.20,197.98 143.64,198.18 C145.69,198.54 148.49,200.41 149.84,202.32 C150.79,203.75 152.29,207.49 152.31,208.74 C152.30,210.78 151.13,212.88 149.18,214.68 C148.68,215.13 148.12,215.65 147.52,216.23" fill="none" stroke="rgb(0, 0, 0)" stroke-width="7.00" stroke-opacity="1.00" stroke-linejoin="miter"/>
</g>
</svg>
