<?xml version="1.0" encoding="UTF-8" standalone="no"?>
<!DOCTYPE svg PUBLIC "-//W3C//DTD SVG 1.1//EN" "http://www.w3.org/Graphics/SVG/1.1/DTD/svg11.dtd">
<svg width="300.00" height="300.00" viewBox="0.00 0.00 300.00 300.00" xmlns="http://www.w3.org/2000/svg" xmlns:xlink="http://www.w3.org/1999/xlink">
<g stroke-linecap="round" id="Calque_2">
<path d="M163.06,76.64 C160.83,78.59 153.71,84.79 152.09,86.71 C150.78,88.31 148.89,91.96 148.42,93.79 C148.01,95.58 148.08,99.35 148.56,101.25 C149.07,103.14 150.97,107.10 152.18,108.86 C153.39,110.58 156.18,113.32 157.79,114.42 C160.34,116.12 167.50,117.90 170.99,117.68 C174.77,117.38 181.37,113.90 183.84,111.43 C186.17,109.02 190.15,103.30 191.92,99.81 C193.79,96.06 195.86,88.68 196.13,84.87 C196.35,81.12 195.33,73.96 194.22,70.51 C193.06,67.03 189.20,59.43 186.87,56.76 C184.25,53.83 177.44,49.59 173.00,48.15 C170.47,47.36 163.44,46.35 159.76,46.26 C156.06,46.19 147.77,46.84 143.49,47.53 C138.94,48.28 131.13,50.53 127.62,52.09 C124.15,53.67 117.91,57.82 115.58,60.09 C113.21,62.44 109.04,68.56 107.50,71.94 C105.98,75.35 103.91,83.03 103.36,87.26 C102.83,91.55 103.00,99.54 103.69,103.30 C104.42,107.05 106.99,113.80 109.03,117.30 C110.85,120.37 115.20,125.83 117.88,128.41 C123.39,133.65 138.10,142.20 145.61,146.46 C152.82,150.80 166.62,160.55 172.53,165.59 C179.15,171.27 190.74,184.16 193.61,189.68 C195.24,192.89 197.23,199.51 197.58,202.92 C197.90,206.35 197.28,213.12 196.32,216.62 C195.33,220.12 192.07,227.34 189.80,231.07 C187.38,234.99 182.14,241.47 179.23,244.13 C176.31,246.75 169.78,250.86 166.55,252.12 C163.31,253.34 155.67,254.70 151.75,254.74 C147.81,254.75 139.58,253.57 135.16,252.36 C130.98,251.19 123.75,248.17 120.69,246.31 C117.77,244.51 112.50,239.84 110.32,236.78 C108.07,233.55 105.28,225.81 104.82,221.57 C104.44,217.73 105.00,208.37 105.71,204.74 C106.42,201.25 109.02,194.50 111.21,191.48 C113.58,188.30 119.79,184.20 124.08,182.92 C127.87,181.84 134.78,181.28 137.55,181.82 C139.58,182.25 143.05,183.61 144.69,184.67 C147.64,186.65 152.57,193.19 153.85,196.35 C154.46,197.96 155.10,201.38 155.11,203.20 C155.06,206.68 152.13,213.58 149.96,216.73 C148.94,218.15 146.26,220.74 144.75,221.64 C142.95,222.69 137.48,223.87 136.18,224.18" fill="none" stroke="rgb(0, 0, 0)" stroke-width="7.00" stroke-opacity="1.00" stroke-linejoin="miter"/>
<path d="M224.50,149.50 L291.50,149.50" fill="none" stroke="rgb(0, 0, 0)" stroke-width="7.00" stroke-opacity="1.00" stroke-linejoin="round"/>
<path d="M224.50,149.50 L291.50,149.50" fill="none" stroke="rgb(0, 0, 0)" stroke-width="7.00" stroke-opacity="1.00" stroke-linejoin="round"/>
<path d="M74.50,149.50 L7.50,149.50" fill="none" stroke="rgb(0, 0, 0)" stroke-width="7.00" stroke-opacity="1.00" stroke-linejoin="round"/>
<path d="M74.50,149.50 L7.50,149.50" fill="none" stroke="rgb(0, 0, 0)" stroke-width="7.00" stroke-opacity="1.00" stroke-linejoin="round"/>
<path d="M225.58,148.99 L252.25,89.93" fill="none" stroke="rgb(0, 0, 0)" stroke-width="7.00" stroke-opacity="1.00" stroke-linejoin="round"/>
<path d="M225.58,150.17 L252.25,209.23" fill="none" stroke="rgb(0, 0, 0)" stroke-width="7.00" stroke-opacity="1.00" stroke-linejoin="round"/>
<path d="M73.58,150.17 L46.91,209.23" fill="none" stroke="rgb(0, 0, 0)" stroke-width="7.00" stroke-opacity="1.00" stroke-linejoin="round"/>
<path d="M73.58,148.99 L46.91,89.93" fill="none" stroke="rgb(0, 0, 0)" stroke-width="7.00" stroke-opacity="1.00" stroke-linejoin="round"/>
<path d="M225.58,148.22 L283.49,112.03" fill="none" stroke="rgb(0, 0, 0)" stroke-width="7.00" stroke-opacity="1.00" stroke-linejoin="round"/>
<path d="M225.58,150.94 L283.49,187.13" fill="none" stroke="rgb(0, 0, 0)" stroke-width="7.00" stroke-opacity="1.00" stroke-linejoin="round"/>
<path d="M73.58,150.94 L15.67,187.13" fill="none" stroke="rgb(0, 0, 0)" stroke-width="7.00" stroke-opacity="1.00" stroke-linejoin="round"/>
<path d="M73.58,148.22 L15.67,112.03" fill="none" stroke="rgb(0, 0, 0)" stroke-width="7.00" stroke-opacity="1.00" stroke-linejoin="round"/>
<path d="M260.63,59.82 L260.63,59.82" fill="none" stroke="rgb(0, 0, 0)" stroke-width="20.00" stroke-opacity="1.00" stroke-linejoin="round"/>
<path d="M260.63,239.34 L260.63,239.34" fill="none" stroke="rgb(0, 0, 0)" stroke-width="20.00" stroke-opacity="1.00" stroke-linejoin="round"/>
<path d="M38.53,239.34 L38.53,239.34" fill="none" stroke="rgb(0, 0, 0)" stroke-width="20.00" stroke-opacity="1.00" stroke-linejoin="round"/>
<path d="M38.53,59.82 L38.53,59.82" fill="none" stroke="rgb(0, 0, 0)" stroke-width="20.00" stroke-opacity="1.00" stroke-linejoin="round"/>
</g>
</svg>
