<?xml version="1.0" encoding="UTF-8" standalone="no"?>
<!DOCTYPE svg PUBLIC "-//W3C//DTD SVG 1.1//EN" "http://www.w3.org/Graphics/SVG/1.1/DTD/svg11.dtd">
<svg width="70.08" height="70.08" viewBox="0.00 0.00 292.00 292.00" xmlns="http://www.w3.org/2000/svg" xmlns:xlink="http://www.w3.org/1999/xlink">
<g stroke-linecap="round" id="Calque_2">
<path d="M145.45,145.04 C145.44,145.30 142.20,149.13 139.70,152.56 C135.17,158.90 128.89,171.25 124.56,181.05 C119.92,192.29 116.05,204.71 115.29,211.71 C114.84,216.09 115.09,224.08 115.79,227.85 C116.50,231.52 118.97,238.46 120.51,241.19 C122.28,244.24 126.89,248.97 130.27,250.57 C132.93,251.80 143.64,253.69 143.98,253.77 C146.12,254.22 150.11,253.26 153.14,252.76 C154.43,252.54 159.49,251.58 161.09,250.95 C164.66,249.52 169.56,244.38 171.34,241.22 C172.82,238.51 175.35,231.45 176.08,227.85 C176.82,224.08 177.14,216.10 176.72,211.71 C176.01,204.71 171.96,191.55 167.62,181.21 C163.80,172.48 156.74,158.93 151.44,151.60 C150.44,150.21 148.04,146.83 147.85,146.60 C146.67,145.14 146.67,144.54 147.74,143.25 C150.39,140.22 158.65,127.81 162.89,118.91 C165.28,113.82 173.00,95.29 174.63,89.20 C175.60,85.48 176.86,77.81 177.03,73.87 C177.18,69.77 176.30,61.90 175.27,58.11 C174.25,54.49 171.65,48.71 169.81,45.99 C168.86,44.64 166.34,42.11 164.69,40.97 C162.91,39.77 159.22,38.48 156.67,38.06 C156.18,37.98 146.24,36.74 145.78,36.79 C143.71,37.10 135.17,38.15 134.78,38.21 C132.37,38.60 128.89,39.83 127.19,41.01 C124.21,43.13 120.46,48.69 119.27,51.35 C117.89,54.49 115.80,61.93 115.33,65.77 C114.88,69.79 115.15,77.81 115.76,81.70 C116.96,89.16 121.19,101.07 125.95,112.18 C129.53,120.19 136.33,132.33 142.67,141.11 C144.07,143.12 145.45,144.83 145.45,145.04 Z" fill="none" stroke="rgb(0, 0, 0)" stroke-width="7.00" stroke-opacity="1.00" stroke-linejoin="miter"/>
<path d="M146.04,145.55 C146.30,145.56 150.12,148.81 153.54,151.32 C159.87,155.87 172.20,162.20 181.98,166.55 C193.20,171.23 205.60,175.13 212.61,175.92 C217.01,176.39 225.00,176.16 228.78,175.47 C232.47,174.77 239.42,172.33 242.14,170.80 C245.25,168.99 250.50,163.74 251.96,159.90 C252.84,157.52 254.61,146.38 254.86,145.48 C254.92,145.27 252.82,132.03 251.97,129.93 C250.58,126.56 245.42,121.77 242.32,120.03 C239.62,118.56 232.52,115.98 228.96,115.23 C225.19,114.46 217.19,114.09 212.80,114.49 C205.81,115.17 192.64,119.17 182.28,123.49 C173.54,127.28 159.95,134.30 152.61,139.58 C151.22,140.58 147.84,142.97 147.60,143.16 C146.14,144.33 145.55,144.33 144.25,143.25 C141.23,140.60 128.80,132.26 119.96,128.03 C114.87,125.63 96.35,117.87 90.26,116.22 C86.55,115.23 78.90,113.93 74.99,113.73 C70.91,113.55 63.09,114.36 59.36,115.35 C55.76,116.34 49.83,118.99 47.15,120.81 C44.40,122.76 39.88,128.78 38.72,132.74 C38.46,133.69 36.13,144.73 36.12,144.93 C36.12,145.21 37.75,152.29 38.45,155.72 C39.02,158.19 40.49,161.71 41.77,163.45 C44.07,166.48 49.79,170.26 52.43,171.45 C55.58,172.84 62.93,174.95 66.75,175.43 C70.73,175.89 78.71,175.64 82.60,175.05 C90.03,173.86 101.98,169.67 113.11,164.95 C121.14,161.39 133.30,154.63 142.10,148.32 C144.11,146.92 145.83,145.55 146.04,145.55 Z" fill="none" stroke="rgb(0, 0, 0)" stroke-width="7.00" stroke-opacity="1.00" stroke-linejoin="miter"/>
</g>
</svg>
