<?xml version="1.0" encoding="UTF-8" standalone="no"?>
<!DOCTYPE svg PUBLIC "-//W3C//DTD SVG 1.1//EN" "http://www.w3.org/Graphics/SVG/1.1/DTD/svg11.dtd">
<svg width="70.08" height="70.08" viewBox="0.00 0.00 292.00 292.00" xmlns="http://www.w3.org/2000/svg" xmlns:xlink="http://www.w3.org/1999/xlink">
<g stroke-linecap="round" id="Calque_2">
<path d="M144.90,235.26 C143.09,236.17 136.14,239.68 135.78,239.85 C132.15,241.59 124.05,243.82 118.46,244.63 C113.01,245.39 95.64,245.77 87.80,245.28 C79.31,244.73 63.16,241.34 55.96,238.25 C51.91,236.49 44.84,232.28 41.45,229.62 C38.28,227.11 33.26,222.10 31.07,219.24 C28.83,216.26 25.38,208.78 24.68,204.77 C24.34,202.73 23.74,189.99 23.69,188.98" fill="none" stroke="rgb(0, 0, 0)" stroke-width="7.00" stroke-opacity="1.00" stroke-linejoin="miter"/>
<path d="M145.10,235.26 C146.91,236.17 153.86,239.68 154.22,239.85 C157.85,241.59 165.95,243.82 171.54,244.63 C176.99,245.39 194.36,245.77 202.20,245.28 C210.69,244.73 226.84,241.34 234.04,238.25 C238.09,236.49 245.16,232.28 248.55,229.62 C251.72,227.11 256.74,222.10 258.93,219.24 C261.17,216.26 264.62,208.78 265.32,204.77 C265.66,202.73 266.26,189.99 266.31,188.98" fill="none" stroke="rgb(0, 0, 0)" stroke-width="7.00" stroke-opacity="1.00" stroke-linejoin="miter"/>
<path d="M144.35,235.81 C154.37,228.95 161.55,223.47 165.41,216.29 C167.13,212.98 169.75,205.69 170.49,202.09 C171.24,198.25 171.13,191.02 170.25,187.33 C169.43,184.05 166.50,177.71 164.41,174.72 C161.33,170.36 150.52,158.66 143.96,152.35 C139.96,148.62 134.39,143.71 133.17,142.39 C130.86,139.83 127.60,133.60 126.72,130.03 C125.98,126.86 125.75,119.45 126.26,115.39 C126.78,111.52 129.05,102.57 130.38,98.82 C131.68,95.19 135.01,88.40 137.21,85.28 C139.52,82.05 143.83,77.99 147.81,75.15 C150.56,73.08 155.37,67.56 157.58,63.91 C159.49,60.69 162.52,53.47 163.72,49.28 C166.22,40.29 166.78,29.03 166.39,27.00 C165.80,24.23 164.08,20.77 162.48,19.60 C157.27,15.90 148.39,14.97 143.25,14.88" fill="none" stroke="rgb(0, 0, 0)" stroke-width="7.00" stroke-opacity="1.00" stroke-linejoin="miter"/>
<path d="M145.65,235.81 C135.63,228.95 128.45,223.47 124.59,216.29 C122.87,212.98 120.25,205.69 119.51,202.09 C118.76,198.25 118.87,191.02 119.75,187.33 C120.57,184.05 123.50,177.71 125.59,174.72 C128.67,170.36 139.48,158.66 146.04,152.35 C150.04,148.62 155.61,143.71 156.83,142.39 C159.14,139.83 162.40,133.60 163.28,130.03 C164.02,126.86 164.25,119.45 163.74,115.39 C163.22,111.52 160.95,102.57 159.62,98.82 C158.32,95.19 154.99,88.40 152.80,85.28 C150.49,82.05 146.19,77.98 142.21,75.15 C139.46,73.07 134.66,67.56 132.42,63.91 C130.48,60.68 127.41,53.49 126.19,49.30 C123.55,40.15 123.13,29.22 123.61,27.00 C124.14,24.74 125.71,21.51 127.00,20.34 C128.68,18.88 137.60,15.68 138.58,15.45 C142.23,14.62 145.82,14.84 146.75,14.88" fill="none" stroke="rgb(0, 0, 0)" stroke-width="7.00" stroke-opacity="1.00" stroke-linejoin="miter"/>
<path d="M64.50,188.50 L64.50,274.50" fill="none" stroke="rgb(0, 0, 0)" stroke-width="7.00" stroke-opacity="1.00" stroke-linejoin="round"/>
<path d="M225.50,188.50 L225.50,274.50" fill="none" stroke="rgb(0, 0, 0)" stroke-width="7.00" stroke-opacity="1.00" stroke-linejoin="round"/>
<path d="M102.50,190.50 L102.50,275.50" fill="none" stroke="rgb(0, 0, 0)" stroke-width="7.00" stroke-opacity="1.00" stroke-linejoin="round"/>
<path d="M187.50,190.50 L187.50,275.50" fill="none" stroke="rgb(0, 0, 0)" stroke-width="7.00" stroke-opacity="1.00" stroke-linejoin="round"/>
<path d="M144.50,187.50 L144.50,276.50" fill="none" stroke="rgb(0, 0, 0)" stroke-width="7.00" stroke-opacity="1.00" stroke-linejoin="round"/>
<path d="M145.50,187.50 L145.50,276.50" fill="none" stroke="rgb(0, 0, 0)" stroke-width="7.00" stroke-opacity="1.00" stroke-linejoin="round"/>
</g>
</svg>
