<?xml version="1.0" encoding="UTF-8" standalone="no"?>
<!DOCTYPE svg PUBLIC "-//W3C//DTD SVG 1.1//EN" "http://www.w3.org/Graphics/SVG/1.1/DTD/svg11.dtd">
<svg width="70.08" height="70.08" viewBox="0.00 0.00 292.00 292.00" xmlns="http://www.w3.org/2000/svg" xmlns:xlink="http://www.w3.org/1999/xlink">
<g stroke-linecap="round" id="Calque_2">
<path d="M65.74,64.61 C63.62,66.11 58.25,69.89 55.01,72.16 C50.96,75.11 45.39,80.76 43.20,84.15 C41.38,87.04 38.93,93.55 38.37,97.04 C37.83,100.66 38.30,107.86 39.32,111.56 C40.36,115.17 43.72,122.26 45.97,125.76 C48.30,129.35 59.01,142.54 61.61,145.76" fill="none" stroke="rgb(0, 0, 0)" stroke-width="7.00" stroke-opacity="1.00" stroke-linejoin="miter"/>
<path d="M65.74,225.08 C63.40,223.58 57.49,219.81 53.91,217.53 C49.46,214.59 43.52,208.94 41.32,205.55 C39.50,202.66 37.36,196.13 37.11,192.66 C36.90,189.23 37.95,181.83 39.16,178.13 C40.37,174.52 43.92,167.43 46.19,163.94 C48.54,160.35 59.06,147.16 61.61,143.94" fill="none" stroke="rgb(0, 0, 0)" stroke-width="7.00" stroke-opacity="1.00" stroke-linejoin="miter"/>
<path d="M226.38,225.08 C228.42,223.84 233.56,220.73 236.67,218.85 C240.56,216.40 245.98,211.18 248.17,207.80 C250.00,204.91 252.56,198.03 253.24,194.17 C253.93,190.08 253.68,182.26 252.73,178.33 C251.77,174.51 248.48,167.19 246.24,163.67 C243.91,160.05 233.13,147.10 230.51,143.94" fill="none" stroke="rgb(0, 0, 0)" stroke-width="7.00" stroke-opacity="1.00" stroke-linejoin="miter"/>
<path d="M226.38,64.61 C228.64,66.24 236.96,72.19 237.90,72.93 C241.61,75.88 247.01,82.62 248.79,86.07 C250.43,89.33 252.70,96.54 253.18,100.03 C253.65,103.78 252.85,111.38 251.55,115.33 C249.17,122.35 242.54,131.31 233.69,141.93 C232.81,142.99 231.22,144.90 230.51,145.76" fill="none" stroke="rgb(0, 0, 0)" stroke-width="7.00" stroke-opacity="1.00" stroke-linejoin="miter"/>
<path d="M71.37,185.57 C68.90,184.45 59.87,180.32 58.78,179.73 C54.80,177.53 49.10,171.28 47.32,167.52 C44.75,161.85 43.26,146.12 42.82,141.62" fill="none" stroke="rgb(0, 0, 0)" stroke-width="7.00" stroke-opacity="1.00" stroke-linejoin="miter"/>
<path d="M71.37,104.12 C68.90,105.25 59.87,109.38 58.78,109.97 C54.80,112.17 49.10,118.42 47.32,122.18 C44.75,127.85 43.26,143.57 42.82,148.07" fill="none" stroke="rgb(0, 0, 0)" stroke-width="7.00" stroke-opacity="1.00" stroke-linejoin="miter"/>
<path d="M220.75,104.12 C223.22,105.25 232.25,109.38 233.34,109.97 C237.32,112.17 243.02,118.42 244.80,122.18 C247.37,127.85 248.86,143.57 249.30,148.07" fill="none" stroke="rgb(0, 0, 0)" stroke-width="7.00" stroke-opacity="1.00" stroke-linejoin="miter"/>
<path d="M220.75,185.57 C223.22,184.45 232.25,180.32 233.34,179.73 C237.32,177.53 243.02,171.28 244.80,167.52 C247.37,161.85 248.86,146.12 249.30,141.62" fill="none" stroke="rgb(0, 0, 0)" stroke-width="7.00" stroke-opacity="1.00" stroke-linejoin="miter"/>
<path d="M146.13,31.93 C144.52,37.59 139.57,55.02 137.17,59.78 C135.27,63.44 130.38,69.75 127.30,72.34 C121.15,77.39 111.94,79.90 98.62,83.25 C97.93,83.42 97.24,83.60 96.54,83.77" fill="none" stroke="rgb(0, 0, 0)" stroke-width="7.00" stroke-opacity="1.00" stroke-linejoin="miter"/>
<path d="M145.99,31.93 C147.60,37.59 152.55,55.02 154.96,59.78 C156.85,63.44 161.74,69.75 164.82,72.34 C170.97,77.39 180.18,79.90 193.50,83.25 C194.19,83.42 194.88,83.60 195.58,83.77" fill="none" stroke="rgb(0, 0, 0)" stroke-width="7.00" stroke-opacity="1.00" stroke-linejoin="miter"/>
<path d="M29.68,158.90 C29.68,158.90 16.90,172.05 16.90,172.05" fill="none" stroke="rgb(0, 0, 0)" stroke-width="7.00" stroke-opacity="1.00" stroke-linejoin="miter"/>
<path d="M29.68,130.79 C29.68,130.79 16.90,117.65 16.90,117.65" fill="none" stroke="rgb(0, 0, 0)" stroke-width="7.00" stroke-opacity="1.00" stroke-linejoin="miter"/>
<path d="M262.44,130.79 C262.44,130.79 275.22,117.65 275.22,117.65" fill="none" stroke="rgb(0, 0, 0)" stroke-width="7.00" stroke-opacity="1.00" stroke-linejoin="miter"/>
<path d="M262.44,158.90 C262.44,158.90 275.22,172.05 275.22,172.05" fill="none" stroke="rgb(0, 0, 0)" stroke-width="7.00" stroke-opacity="1.00" stroke-linejoin="miter"/>
<path d="M9.02,144.63 C9.02,144.63 27.42,143.88 27.42,143.88" fill="none" stroke="rgb(0, 0, 0)" stroke-width="7.00" stroke-opacity="1.00" stroke-linejoin="miter"/>
<path d="M9.02,145.07 C9.02,145.07 27.42,145.82 27.42,145.82" fill="none" stroke="rgb(0, 0, 0)" stroke-width="7.00" stroke-opacity="1.00" stroke-linejoin="miter"/>
<path d="M283.11,145.07 C283.11,145.07 264.70,145.82 264.70,145.82" fill="none" stroke="rgb(0, 0, 0)" stroke-width="7.00" stroke-opacity="1.00" stroke-linejoin="miter"/>
<path d="M283.11,144.63 C283.11,144.63 264.70,143.88 264.70,143.88" fill="none" stroke="rgb(0, 0, 0)" stroke-width="7.00" stroke-opacity="1.00" stroke-linejoin="miter"/>
</g>
</svg>
