<svg xmlns="http://www.w3.org/2000/svg" xmlns:xlink="http://www.w3.org/1999/xlink" width="100" zoomAndPan="magnify" viewBox="0 0 75 74.999997" height="100" preserveAspectRatio="xMidYMid meet" version="1.0"><defs><clipPath id="3ff95e3892"><path d="M 19 11 L 51 11 L 51 64 L 19 64 Z M 19 11 " clip-rule="nonzero"/></clipPath><clipPath id="8bffc295b5"><path d="M 19.414062 62.859375 L 48.984375 10.71875 L 51.464844 12.128906 L 21.894531 64.265625 Z M 19.414062 62.859375 " clip-rule="nonzero"/></clipPath><clipPath id="318480a710"><path d="M 20.117188 61.621094 L 48.28125 11.964844 C 48.464844 11.632812 48.777344 11.394531 49.140625 11.292969 C 49.503906 11.191406 49.894531 11.238281 50.222656 11.425781 C 50.550781 11.613281 50.792969 11.921875 50.894531 12.285156 C 50.996094 12.652344 50.945312 13.039062 50.761719 13.371094 L 22.597656 63.027344 C 22.410156 63.355469 22.101562 63.597656 21.738281 63.699219 C 21.371094 63.796875 20.984375 63.75 20.65625 63.5625 C 20.324219 63.378906 20.085938 63.066406 19.984375 62.703125 C 19.882812 62.339844 19.929688 61.949219 20.117188 61.621094 Z M 20.117188 61.621094 " clip-rule="nonzero"/></clipPath><clipPath id="e203e05f84"><path d="M 23 11 L 56 11 L 56 64 L 23 64 Z M 23 11 " clip-rule="nonzero"/></clipPath><clipPath id="1f332c0d70"><path d="M 53.113281 64.265625 L 22.90625 12.140625 L 25.371094 10.710938 L 55.578125 62.835938 Z M 53.113281 64.265625 " clip-rule="nonzero"/></clipPath><clipPath id="a45d2b3b31"><path d="M 52.398438 63.03125 L 23.625 13.382812 C 23.433594 13.054688 23.382812 12.667969 23.480469 12.300781 C 23.578125 11.9375 23.816406 11.625 24.144531 11.433594 C 24.472656 11.246094 24.859375 11.195312 25.226562 11.289062 C 25.589844 11.386719 25.902344 11.625 26.09375 11.953125 L 54.863281 61.601562 C 55.054688 61.929688 55.105469 62.316406 55.007812 62.683594 C 54.910156 63.046875 54.671875 63.359375 54.34375 63.550781 C 54.019531 63.738281 53.628906 63.792969 53.261719 63.695312 C 52.898438 63.597656 52.585938 63.359375 52.398438 63.03125 Z M 52.398438 63.03125 " clip-rule="nonzero"/></clipPath><clipPath id="42f9ae5a66"><path d="M 23.441406 11.007812 L 50.867188 11.007812 L 50.867188 13.859375 L 23.441406 13.859375 Z M 23.441406 11.007812 " clip-rule="nonzero"/></clipPath><clipPath id="6be7e36892"><path d="M 24.867188 11.007812 L 49.433594 11.007812 C 49.808594 11.007812 50.171875 11.160156 50.441406 11.425781 C 50.707031 11.691406 50.859375 12.054688 50.859375 12.433594 C 50.859375 12.8125 50.707031 13.175781 50.441406 13.441406 C 50.171875 13.710938 49.808594 13.859375 49.433594 13.859375 L 24.867188 13.859375 C 24.492188 13.859375 24.128906 13.710938 23.859375 13.441406 C 23.59375 13.175781 23.441406 12.8125 23.441406 12.433594 C 23.441406 12.054688 23.59375 11.691406 23.859375 11.425781 C 24.128906 11.160156 24.492188 11.007812 24.867188 11.007812 Z M 24.867188 11.007812 " clip-rule="nonzero"/></clipPath></defs><g clip-path="url(#3ff95e3892)"><g clip-path="url(#8bffc295b5)"><g clip-path="url(#318480a710)"><path fill="#222222" d="M 19.414062 62.859375 L 48.984375 10.71875 L 51.464844 12.128906 L 21.894531 64.265625 Z M 19.414062 62.859375 " fill-opacity="1" fill-rule="nonzero"/></g></g></g><g clip-path="url(#e203e05f84)"><g clip-path="url(#1f332c0d70)"><g clip-path="url(#a45d2b3b31)"><path fill="#222222" d="M 53.113281 64.265625 L 22.910156 12.152344 L 25.378906 10.722656 L 55.578125 62.835938 Z M 53.113281 64.265625 " fill-opacity="1" fill-rule="nonzero"/></g></g></g><g clip-path="url(#42f9ae5a66)"><g clip-path="url(#6be7e36892)"><path fill="#222222" d="M 23.441406 11.007812 L 50.855469 11.007812 L 50.855469 13.859375 L 23.441406 13.859375 Z M 23.441406 11.007812 " fill-opacity="1" fill-rule="nonzero"/></g></g></svg>