<svg xmlns="http://www.w3.org/2000/svg" xmlns:xlink="http://www.w3.org/1999/xlink" width="100" zoomAndPan="magnify" viewBox="0 0 75 74.999997" height="100" preserveAspectRatio="xMidYMid meet" version="1.0"><defs><clipPath id="4a46dfa9d1"><path d="M 35 16 L 62 16 L 62 59 L 35 59 Z M 35 16 " clip-rule="nonzero"/></clipPath><clipPath id="117cf21c2a"><path d="M 34.441406 57.324219 L 58.351562 15.167969 L 62.734375 17.652344 L 38.824219 59.8125 Z M 34.441406 57.324219 " clip-rule="nonzero"/></clipPath><clipPath id="bd798e36aa"><path d="M 35.683594 55.132812 L 57.097656 17.375 C 57.429688 16.792969 57.976562 16.367188 58.621094 16.1875 C 59.265625 16.011719 59.953125 16.097656 60.535156 16.425781 C 61.117188 16.753906 61.542969 17.304688 61.71875 17.945312 C 61.898438 18.589844 61.8125 19.28125 61.484375 19.859375 L 40.070312 57.617188 C 39.738281 58.199219 39.191406 58.625 38.546875 58.804688 C 37.902344 58.984375 37.214844 58.898438 36.632812 58.566406 C 36.054688 58.238281 35.625 57.691406 35.449219 57.046875 C 35.269531 56.402344 35.355469 55.714844 35.683594 55.132812 Z M 35.683594 55.132812 " clip-rule="nonzero"/></clipPath><clipPath id="96f6f74caa"><path d="M 13 16 L 41 16 L 41 59 L 13 59 Z M 13 16 " clip-rule="nonzero"/></clipPath><clipPath id="926d5ab4ea"><path d="M 36.566406 59.625 L 12.265625 17.691406 L 16.625 15.167969 L 40.925781 57.101562 Z M 36.566406 59.625 " clip-rule="nonzero"/></clipPath><clipPath id="1e91f01339"><path d="M 35.304688 57.445312 L 13.539062 19.890625 C 13.203125 19.3125 13.113281 18.625 13.285156 17.976562 C 13.457031 17.332031 13.878906 16.78125 14.457031 16.445312 C 15.035156 16.109375 15.722656 16.019531 16.367188 16.191406 C 17.011719 16.363281 17.5625 16.785156 17.898438 17.363281 L 39.664062 54.917969 C 40 55.496094 40.089844 56.183594 39.917969 56.832031 C 39.746094 57.476562 39.324219 58.027344 38.746094 58.363281 C 38.167969 58.699219 37.480469 58.789062 36.835938 58.617188 C 36.191406 58.445312 35.636719 58.023438 35.304688 57.445312 Z M 35.304688 57.445312 " clip-rule="nonzero"/></clipPath><clipPath id="14161bcb67"><path d="M 13.207031 15.679688 L 61.671875 15.679688 L 61.671875 20.71875 L 13.207031 20.71875 Z M 13.207031 15.679688 " clip-rule="nonzero"/></clipPath><clipPath id="fee057e50d"><path d="M 15.726562 15.679688 L 59.132812 15.679688 C 59.804688 15.679688 60.445312 15.945312 60.917969 16.417969 C 61.390625 16.890625 61.652344 17.53125 61.652344 18.199219 C 61.652344 18.867188 61.390625 19.507812 60.917969 19.980469 C 60.445312 20.453125 59.804688 20.71875 59.132812 20.71875 L 15.726562 20.71875 C 15.058594 20.71875 14.417969 20.453125 13.945312 19.980469 C 13.472656 19.507812 13.207031 18.867188 13.207031 18.199219 C 13.207031 17.53125 13.472656 16.890625 13.945312 16.417969 C 14.417969 15.945312 15.058594 15.679688 15.726562 15.679688 Z M 15.726562 15.679688 " clip-rule="nonzero"/></clipPath></defs><g clip-path="url(#4a46dfa9d1)"><g clip-path="url(#117cf21c2a)"><g clip-path="url(#bd798e36aa)"><path fill="#222222" d="M 34.441406 57.324219 L 58.34375 15.183594 L 62.726562 17.667969 L 38.824219 59.8125 Z M 34.441406 57.324219 " fill-opacity="1" fill-rule="nonzero"/></g></g></g><g clip-path="url(#96f6f74caa)"><g clip-path="url(#926d5ab4ea)"><g clip-path="url(#1e91f01339)"><path fill="#222222" d="M 36.566406 59.625 L 12.277344 17.710938 L 16.636719 15.183594 L 40.925781 57.101562 Z M 36.566406 59.625 " fill-opacity="1" fill-rule="nonzero"/></g></g></g><g clip-path="url(#14161bcb67)"><g clip-path="url(#fee057e50d)"><path fill="#222222" d="M 13.207031 15.679688 L 61.652344 15.679688 L 61.652344 20.71875 L 13.207031 20.71875 Z M 13.207031 15.679688 " fill-opacity="1" fill-rule="nonzero"/></g></g></svg>