<svg xmlns="http://www.w3.org/2000/svg" xmlns:xlink="http://www.w3.org/1999/xlink" width="100" zoomAndPan="magnify" viewBox="0 0 75 74.999997" height="100" preserveAspectRatio="xMidYMid meet" version="1.0"><defs><clipPath id="c1416ddd6f"><path d="M 35.59375 7.484375 L 39.410156 7.484375 L 39.410156 67.460938 L 35.59375 67.460938 Z M 35.59375 7.484375 " clip-rule="nonzero"/></clipPath><clipPath id="64397b955d"><path d="M 35.59375 65.554688 L 35.59375 9.402344 C 35.59375 8.894531 35.792969 8.410156 36.152344 8.050781 C 36.511719 7.695312 36.996094 7.492188 37.503906 7.492188 C 38.007812 7.492188 38.496094 7.695312 38.851562 8.050781 C 39.210938 8.410156 39.410156 8.894531 39.410156 9.402344 L 39.410156 65.554688 C 39.410156 66.058594 39.210938 66.546875 38.851562 66.902344 C 38.496094 67.261719 38.007812 67.460938 37.503906 67.460938 C 36.996094 67.460938 36.511719 67.261719 36.152344 66.902344 C 35.792969 66.546875 35.59375 66.058594 35.59375 65.554688 Z M 35.59375 65.554688 " clip-rule="nonzero"/></clipPath><clipPath id="684f152c4b"><path d="M 20.902344 18.492188 L 25.023438 18.492188 L 25.023438 22.613281 L 20.902344 22.613281 Z M 20.902344 18.492188 " clip-rule="nonzero"/></clipPath><clipPath id="418c13b8ef"><path d="M 22.960938 18.492188 C 21.824219 18.492188 20.902344 19.414062 20.902344 20.554688 C 20.902344 21.691406 21.824219 22.613281 22.960938 22.613281 C 24.101562 22.613281 25.023438 21.691406 25.023438 20.554688 C 25.023438 19.414062 24.101562 18.492188 22.960938 18.492188 Z M 22.960938 18.492188 " clip-rule="nonzero"/></clipPath><clipPath id="0abb9e29b4"><path d="M 49.910156 18.492188 L 54.03125 18.492188 L 54.03125 22.613281 L 49.910156 22.613281 Z M 49.910156 18.492188 " clip-rule="nonzero"/></clipPath><clipPath id="24cb8e25ad"><path d="M 51.96875 18.492188 C 50.832031 18.492188 49.910156 19.414062 49.910156 20.554688 C 49.910156 21.691406 50.832031 22.613281 51.96875 22.613281 C 53.109375 22.613281 54.03125 21.691406 54.03125 20.554688 C 54.03125 19.414062 53.109375 18.492188 51.96875 18.492188 Z M 51.96875 18.492188 " clip-rule="nonzero"/></clipPath><clipPath id="bef11254e7"><path d="M 20.933594 53.433594 L 25.058594 53.433594 L 25.058594 57.558594 L 20.933594 57.558594 Z M 20.933594 53.433594 " clip-rule="nonzero"/></clipPath><clipPath id="df2ac35787"><path d="M 22.996094 53.433594 C 21.855469 53.433594 20.933594 54.359375 20.933594 55.496094 C 20.933594 56.636719 21.855469 57.558594 22.996094 57.558594 C 24.132812 57.558594 25.058594 56.636719 25.058594 55.496094 C 25.058594 54.359375 24.132812 53.433594 22.996094 53.433594 Z M 22.996094 53.433594 " clip-rule="nonzero"/></clipPath><clipPath id="500a7ece76"><path d="M 49.941406 53.433594 L 54.066406 53.433594 L 54.066406 57.558594 L 49.941406 57.558594 Z M 49.941406 53.433594 " clip-rule="nonzero"/></clipPath><clipPath id="76128c09f0"><path d="M 52.003906 53.433594 C 50.867188 53.433594 49.941406 54.359375 49.941406 55.496094 C 49.941406 56.636719 50.867188 57.558594 52.003906 57.558594 C 53.144531 57.558594 54.066406 56.636719 54.066406 55.496094 C 54.066406 54.359375 53.144531 53.433594 52.003906 53.433594 Z M 52.003906 53.433594 " clip-rule="nonzero"/></clipPath></defs><g clip-path="url(#c1416ddd6f)"><g clip-path="url(#64397b955d)"><path fill="#222222" d="M 35.59375 67.460938 L 35.59375 7.5 L 39.410156 7.5 L 39.410156 67.460938 Z M 35.59375 67.460938 " fill-opacity="1" fill-rule="nonzero"/></g></g><g clip-path="url(#684f152c4b)"><g clip-path="url(#418c13b8ef)"><path fill="#222222" d="M 20.902344 18.492188 L 25.023438 18.492188 L 25.023438 22.613281 L 20.902344 22.613281 Z M 20.902344 18.492188 " fill-opacity="1" fill-rule="nonzero"/></g></g><g clip-path="url(#0abb9e29b4)"><g clip-path="url(#24cb8e25ad)"><path fill="#222222" d="M 49.910156 18.492188 L 54.03125 18.492188 L 54.03125 22.613281 L 49.910156 22.613281 Z M 49.910156 18.492188 " fill-opacity="1" fill-rule="nonzero"/></g></g><g clip-path="url(#bef11254e7)"><g clip-path="url(#df2ac35787)"><path fill="#222222" d="M 20.933594 53.433594 L 25.058594 53.433594 L 25.058594 57.558594 L 20.933594 57.558594 Z M 20.933594 53.433594 " fill-opacity="1" fill-rule="nonzero"/></g></g><g clip-path="url(#500a7ece76)"><g clip-path="url(#76128c09f0)"><path fill="#222222" d="M 49.941406 53.433594 L 54.066406 53.433594 L 54.066406 57.558594 L 49.941406 57.558594 Z M 49.941406 53.433594 " fill-opacity="1" fill-rule="nonzero"/></g></g></svg>