<svg xmlns="http://www.w3.org/2000/svg" xmlns:xlink="http://www.w3.org/1999/xlink" width="100" zoomAndPan="magnify" viewBox="0 0 75 74.999997" height="100" preserveAspectRatio="xMidYMid meet" version="1.0"><defs><clipPath id="f3a9bbacdd"><path d="M 35 29 L 53 29 L 53 46 L 35 46 Z M 35 29 " clip-rule="nonzero"/></clipPath><clipPath id="fc87f2189a"><path d="M 53.195312 30.75 L 37.480469 46.46875 L 35.273438 44.261719 L 50.992188 28.546875 Z M 53.195312 30.75 " clip-rule="nonzero"/></clipPath><clipPath id="9655f15e02"><path d="M 52.09375 31.851562 L 38.589844 45.359375 C 38.296875 45.648438 37.898438 45.816406 37.484375 45.816406 C 37.074219 45.816406 36.675781 45.648438 36.382812 45.359375 C 36.089844 45.066406 35.925781 44.667969 35.925781 44.253906 C 35.925781 43.84375 36.089844 43.445312 36.382812 43.152344 L 49.890625 29.648438 C 50.179688 29.355469 50.578125 29.191406 50.992188 29.191406 C 51.40625 29.191406 51.800781 29.355469 52.09375 29.648438 C 52.386719 29.941406 52.550781 30.335938 52.550781 30.75 C 52.550781 31.164062 52.386719 31.558594 52.09375 31.851562 Z M 52.09375 31.851562 " clip-rule="nonzero"/></clipPath><clipPath id="dfe417f00d"><path d="M 22 29 L 39 29 L 39 46 L 22 46 Z M 22 29 " clip-rule="nonzero"/></clipPath><clipPath id="394c57f212"><path d="M 37.441406 46.453125 L 21.726562 30.734375 L 23.929688 28.53125 L 39.648438 44.25 Z M 37.441406 46.453125 " clip-rule="nonzero"/></clipPath><clipPath id="8ad7454109"><path d="M 36.339844 45.351562 L 22.835938 31.84375 C 22.542969 31.554688 22.378906 31.15625 22.378906 30.742188 C 22.378906 30.328125 22.542969 29.933594 22.835938 29.640625 C 23.125 29.347656 23.523438 29.183594 23.9375 29.183594 C 24.351562 29.183594 24.746094 29.347656 25.039062 29.640625 L 38.542969 43.144531 C 38.835938 43.4375 39 43.835938 39 44.25 C 39 44.660156 38.835938 45.058594 38.542969 45.351562 C 38.253906 45.644531 37.855469 45.808594 37.441406 45.808594 C 37.027344 45.808594 36.632812 45.644531 36.339844 45.351562 Z M 36.339844 45.351562 " clip-rule="nonzero"/></clipPath><clipPath id="ea9c1cf740"><path d="M 8 29 L 26 29 L 26 46 L 8 46 Z M 8 29 " clip-rule="nonzero"/></clipPath><clipPath id="72b20ac2be"><path d="M 26.210938 30.75 L 10.492188 46.46875 L 8.289062 44.261719 L 24.003906 28.546875 Z M 26.210938 30.75 " clip-rule="nonzero"/></clipPath><clipPath id="22ce13d87c"><path d="M 25.105469 31.851562 L 11.601562 45.359375 C 11.308594 45.648438 10.914062 45.816406 10.5 45.816406 C 10.085938 45.816406 9.6875 45.648438 9.398438 45.359375 C 9.105469 45.066406 8.941406 44.667969 8.941406 44.253906 C 8.941406 43.84375 9.105469 43.445312 9.398438 43.152344 L 22.902344 29.648438 C 23.195312 29.355469 23.589844 29.191406 24.003906 29.191406 C 24.417969 29.191406 24.8125 29.355469 25.105469 29.648438 C 25.398438 29.941406 25.5625 30.335938 25.5625 30.75 C 25.5625 31.164062 25.398438 31.558594 25.105469 31.851562 Z M 25.105469 31.851562 " clip-rule="nonzero"/></clipPath><clipPath id="ecd8567711"><path d="M 49 29 L 67 29 L 67 46 L 49 46 Z M 49 29 " clip-rule="nonzero"/></clipPath><clipPath id="846763389f"><path d="M 64.484375 46.453125 L 48.765625 30.734375 L 50.972656 28.53125 L 66.6875 44.25 Z M 64.484375 46.453125 " clip-rule="nonzero"/></clipPath><clipPath id="d143d32135"><path d="M 63.382812 45.351562 L 49.875 31.84375 C 49.582031 31.554688 49.417969 31.15625 49.417969 30.742188 C 49.417969 30.328125 49.582031 29.933594 49.875 29.640625 C 50.167969 29.347656 50.566406 29.183594 50.976562 29.183594 C 51.390625 29.183594 51.789062 29.347656 52.082031 29.640625 L 65.585938 43.144531 C 65.878906 43.4375 66.042969 43.835938 66.042969 44.25 C 66.042969 44.660156 65.878906 45.058594 65.585938 45.351562 C 65.292969 45.644531 64.898438 45.808594 64.484375 45.808594 C 64.070312 45.808594 63.671875 45.644531 63.382812 45.351562 Z M 63.382812 45.351562 " clip-rule="nonzero"/></clipPath></defs><g clip-path="url(#f3a9bbacdd)"><g clip-path="url(#fc87f2189a)"><g clip-path="url(#9655f15e02)"><path fill="#222222" d="M 53.195312 30.75 L 37.488281 46.457031 L 35.28125 44.253906 L 50.992188 28.546875 Z M 53.195312 30.75 " fill-opacity="1" fill-rule="nonzero"/></g></g></g><g clip-path="url(#dfe417f00d)"><g clip-path="url(#394c57f212)"><g clip-path="url(#8ad7454109)"><path fill="#222222" d="M 37.441406 46.453125 L 21.734375 30.746094 L 23.9375 28.539062 L 39.648438 44.25 Z M 37.441406 46.453125 " fill-opacity="1" fill-rule="nonzero"/></g></g></g><g clip-path="url(#ea9c1cf740)"><g clip-path="url(#72b20ac2be)"><g clip-path="url(#22ce13d87c)"><path fill="#222222" d="M 26.210938 30.75 L 10.5 46.457031 L 8.296875 44.253906 L 24.003906 28.546875 Z M 26.210938 30.75 " fill-opacity="1" fill-rule="nonzero"/></g></g></g><g clip-path="url(#ecd8567711)"><g clip-path="url(#846763389f)"><g clip-path="url(#d143d32135)"><path fill="#222222" d="M 64.484375 46.453125 L 48.773438 30.746094 L 50.980469 28.539062 L 66.6875 44.25 Z M 64.484375 46.453125 " fill-opacity="1" fill-rule="nonzero"/></g></g></g></svg>