<svg xmlns="http://www.w3.org/2000/svg" xmlns:xlink="http://www.w3.org/1999/xlink" width="100" zoomAndPan="magnify" viewBox="0 0 75 74.999997" height="100" preserveAspectRatio="xMidYMid meet" version="1.0"><defs><clipPath id="45c22e5fda"><path d="M 35 26 L 59 26 L 59 49 L 35 49 Z M 35 26 " clip-rule="nonzero"/></clipPath><clipPath id="107e2702f6"><path d="M 55.960938 49.769531 L 34.414062 28.222656 L 37.4375 25.199219 L 58.984375 46.746094 Z M 55.960938 49.769531 " clip-rule="nonzero"/></clipPath><clipPath id="e5352918c0"><path d="M 54.449219 48.257812 L 35.9375 29.742188 C 35.535156 29.34375 35.308594 28.800781 35.308594 28.230469 C 35.308594 27.664062 35.535156 27.121094 35.9375 26.722656 C 36.335938 26.320312 36.878906 26.09375 37.449219 26.09375 C 38.015625 26.09375 38.558594 26.320312 38.957031 26.722656 L 57.472656 45.234375 C 57.871094 45.636719 58.097656 46.179688 58.097656 46.746094 C 58.097656 47.3125 57.871094 47.855469 57.472656 48.257812 C 57.070312 48.65625 56.527344 48.882812 55.960938 48.882812 C 55.394531 48.882812 54.851562 48.65625 54.449219 48.257812 Z M 54.449219 48.257812 " clip-rule="nonzero"/></clipPath><clipPath id="36b1c3f7a2"><path d="M 16 26 L 40 26 L 40 49 L 16 49 Z M 16 26 " clip-rule="nonzero"/></clipPath><clipPath id="6137e2249c"><path d="M 40.558594 28.238281 L 19.011719 49.785156 L 15.988281 46.761719 L 37.535156 25.21875 Z M 40.558594 28.238281 " clip-rule="nonzero"/></clipPath><clipPath id="8e5290a1c3"><path d="M 39.046875 29.75 L 20.53125 48.265625 C 20.132812 48.664062 19.585938 48.890625 19.019531 48.890625 C 18.453125 48.890625 17.910156 48.664062 17.511719 48.265625 C 17.109375 47.863281 16.882812 47.320312 16.882812 46.753906 C 16.882812 46.1875 17.109375 45.644531 17.511719 45.242188 L 36.023438 26.730469 C 36.425781 26.328125 36.96875 26.101562 37.535156 26.101562 C 38.101562 26.101562 38.644531 26.328125 39.046875 26.730469 C 39.445312 27.128906 39.671875 27.671875 39.671875 28.238281 C 39.671875 28.804688 39.445312 29.351562 39.046875 29.75 Z M 39.046875 29.75 " clip-rule="nonzero"/></clipPath></defs><g clip-path="url(#45c22e5fda)"><g clip-path="url(#107e2702f6)"><g clip-path="url(#e5352918c0)"><path fill="#222222" d="M 55.960938 49.769531 L 34.425781 28.234375 L 37.449219 25.210938 L 58.984375 46.746094 Z M 55.960938 49.769531 " fill-opacity="1" fill-rule="nonzero"/></g></g></g><g clip-path="url(#36b1c3f7a2)"><g clip-path="url(#6137e2249c)"><g clip-path="url(#8e5290a1c3)"><path fill="#222222" d="M 40.558594 28.238281 L 19.023438 49.773438 L 16 46.75 L 37.535156 25.21875 Z M 40.558594 28.238281 " fill-opacity="1" fill-rule="nonzero"/></g></g></g></svg>