<svg xmlns="http://www.w3.org/2000/svg" xmlns:xlink="http://www.w3.org/1999/xlink" width="100" zoomAndPan="magnify" viewBox="0 0 75 74.999997" height="100" preserveAspectRatio="xMidYMid meet" version="1.0"><defs><clipPath id="ed1abf7f79"><path d="M 14.621094 46.398438 L 60.382812 46.398438 L 60.382812 50.148438 L 14.621094 50.148438 Z M 14.621094 46.398438 " clip-rule="nonzero"/></clipPath><clipPath id="fcc963f0f6"><path d="M 16.496094 46.398438 L 58.503906 46.398438 C 59 46.398438 59.476562 46.597656 59.828125 46.949219 C 60.179688 47.300781 60.378906 47.777344 60.378906 48.273438 C 60.378906 48.769531 60.179688 49.25 59.828125 49.601562 C 59.476562 49.953125 59 50.148438 58.503906 50.148438 L 16.496094 50.148438 C 16 50.148438 15.523438 49.953125 15.171875 49.601562 C 14.820312 49.25 14.621094 48.769531 14.621094 48.273438 C 14.621094 47.777344 14.820312 47.300781 15.171875 46.949219 C 15.523438 46.597656 16 46.398438 16.496094 46.398438 Z M 16.496094 46.398438 " clip-rule="nonzero"/></clipPath><clipPath id="a64a1d0211"><path d="M 35.625 5.175781 L 39.375 5.175781 L 39.375 48.273438 L 35.625 48.273438 Z M 35.625 5.175781 " clip-rule="nonzero"/></clipPath><clipPath id="64cc362091"><path d="M 35.625 46.398438 L 35.625 7.054688 C 35.625 6.558594 35.820312 6.082031 36.171875 5.730469 C 36.523438 5.378906 37 5.179688 37.5 5.179688 C 37.996094 5.179688 38.472656 5.378906 38.824219 5.730469 C 39.175781 6.082031 39.375 6.558594 39.375 7.054688 L 39.375 46.398438 C 39.375 46.894531 39.175781 47.371094 38.824219 47.722656 C 38.472656 48.074219 37.996094 48.273438 37.5 48.273438 C 37 48.273438 36.523438 48.074219 36.171875 47.722656 C 35.820312 47.371094 35.625 46.894531 35.625 46.398438 Z M 35.625 46.398438 " clip-rule="nonzero"/></clipPath><clipPath id="069451c551"><path d="M 12 54 L 63 54 L 63 68 L 12 68 Z M 12 54 " clip-rule="nonzero"/></clipPath><clipPath id="9696415e52"><path d="M 63.105469 56.125 L 37.648438 81.582031 L 12.191406 56.125 L 37.648438 30.667969 Z M 63.105469 56.125 " clip-rule="nonzero"/></clipPath><clipPath id="7616c49462"><path d="M 63.105469 56.125 L 37.648438 81.582031 L 12.191406 56.125 L 37.648438 30.667969 Z M 63.105469 56.125 " clip-rule="nonzero"/></clipPath><clipPath id="8cd89be5f5"><path d="M 63.105469 56.125 L 37.648438 81.582031 L 12.191406 56.125 L 37.648438 30.667969 Z M 63.105469 56.125 " clip-rule="nonzero"/></clipPath></defs><g clip-path="url(#ed1abf7f79)"><g clip-path="url(#fcc963f0f6)"><path fill="#222222" d="M 14.621094 46.398438 L 60.382812 46.398438 L 60.382812 50.148438 L 14.621094 50.148438 Z M 14.621094 46.398438 " fill-opacity="1" fill-rule="nonzero"/></g></g><g clip-path="url(#a64a1d0211)"><g clip-path="url(#64cc362091)"><path fill="#222222" d="M 35.625 48.273438 L 35.625 5.175781 L 39.375 5.175781 L 39.375 48.273438 Z M 35.625 48.273438 " fill-opacity="1" fill-rule="nonzero"/></g></g><g clip-path="url(#069451c551)"><g clip-path="url(#9696415e52)"><g clip-path="url(#7616c49462)"><g clip-path="url(#8cd89be5f5)"><path fill="#000000" d="M 13.460938 54.855469 C 14.160156 54.15625 15.292969 54.15625 15.992188 54.855469 C 27.933594 66.796875 47.363281 66.796875 59.300781 54.855469 C 60 54.15625 61.136719 54.15625 61.835938 54.855469 C 62.535156 55.558594 62.535156 56.691406 61.835938 57.390625 C 58.574219 60.65625 54.765625 63.183594 50.519531 64.90625 C 46.417969 66.570312 42.089844 67.410156 37.652344 67.410156 C 33.210938 67.410156 28.878906 66.566406 24.78125 64.90625 C 20.535156 63.183594 16.730469 60.65625 13.464844 57.390625 C 12.761719 56.691406 12.761719 55.558594 13.460938 54.855469 Z M 13.460938 54.855469 " fill-opacity="1" fill-rule="nonzero"/></g></g></g></g></svg>