<?xml version="1.0" encoding="UTF-8" standalone="no"?>
<!DOCTYPE svg PUBLIC "-//W3C//DTD SVG 1.1//EN" "http://www.w3.org/Graphics/SVG/1.1/DTD/svg11.dtd">
<svg width="70.08" height="70.08" viewBox="0.00 0.00 292.00 292.00" xmlns="http://www.w3.org/2000/svg" xmlns:xlink="http://www.w3.org/1999/xlink">
<g stroke-linecap="round" id="Calque_2">
<path d="M54.09,160.00 C67.92,137.99 74.53,128.42 80.83,122.35 C83.94,119.38 90.61,114.28 94.17,112.14 C101.39,107.87 112.48,104.38 124.60,101.47 C127.68,100.78 135.54,99.12 135.91,99.09 C139.03,98.84 146.96,99.46 148.18,99.55" fill="none" stroke="rgb(0, 0, 0)" stroke-width="7.00" stroke-opacity="1.00" stroke-linejoin="miter"/>
<path d="M237.91,160.00 C224.08,137.98 217.47,128.40 211.17,122.34 C208.06,119.38 201.39,114.28 197.83,112.16 C190.61,107.89 179.71,104.50 167.40,101.54 C156.99,99.19 154.89,98.97 143.82,98.80" fill="none" stroke="rgb(0, 0, 0)" stroke-width="7.00" stroke-opacity="1.00" stroke-linejoin="miter"/>
<path d="M53.18,160.91 C57.68,165.24 69.60,176.72 76.19,180.92 C79.82,183.20 87.18,186.76 90.91,188.11 C96.80,190.20 114.58,193.81 122.23,194.63 C128.91,195.34 142.88,195.42 146.82,195.45" fill="none" stroke="rgb(0, 0, 0)" stroke-width="7.00" stroke-opacity="1.00" stroke-linejoin="miter"/>
<path d="M238.82,160.91 C234.32,165.24 222.40,176.72 215.81,180.92 C212.18,183.20 204.82,186.76 201.09,188.11 C195.20,190.20 177.42,193.81 169.77,194.63 C163.09,195.34 149.12,195.42 145.18,195.45" fill="none" stroke="rgb(0, 0, 0)" stroke-width="7.00" stroke-opacity="1.00" stroke-linejoin="miter"/>
<path d="M145.50,145.50 L145.50,145.50" fill="none" stroke="rgb(0, 0, 0)" stroke-width="40.00" stroke-opacity="1.00" stroke-linejoin="round"/>
</g>
</svg>
