<?xml version="1.0" encoding="UTF-8" standalone="no"?>
<!DOCTYPE svg PUBLIC "-//W3C//DTD SVG 1.1//EN" "http://www.w3.org/Graphics/SVG/1.1/DTD/svg11.dtd">
<svg width="70.08" height="70.08" viewBox="0.00 0.00 292.00 292.00" xmlns="http://www.w3.org/2000/svg" xmlns:xlink="http://www.w3.org/1999/xlink">
<g stroke-linecap="round" id="Calque_2_Copie">
<path d="M173.14,62.84 C169.66,67.47 159.65,80.72 156.44,86.00 C154.27,89.63 151.01,96.24 149.64,99.82 C148.42,103.08 146.35,110.78 146.19,113.51 C146.05,116.91 147.83,123.77 149.92,127.72 C151.46,130.58 155.77,136.45 158.55,139.46 C161.42,142.55 169.64,149.85 171.56,151.69 C174.64,154.66 179.61,160.35 181.63,163.24 C183.88,166.52 187.09,173.36 187.54,176.97 C187.88,180.01 186.37,187.21 185.14,190.71 C182.72,197.46 174.99,210.31 168.15,219.56 C165.99,222.49 162.34,227.45 160.84,229.49" fill="none" stroke="rgb(0, 0, 0)" stroke-width="7.00" stroke-opacity="1.00" stroke-linejoin="miter"/>
</g>
</svg>
