<svg xmlns="http://www.w3.org/2000/svg" xmlns:xlink="http://www.w3.org/1999/xlink" width="100" zoomAndPan="magnify" viewBox="0 0 75 74.999997" height="100" preserveAspectRatio="xMidYMid meet" version="1.0"><defs><clipPath id="c62e3b0b20"><path d="M 14.621094 56.234375 L 60.382812 56.234375 L 60.382812 59.984375 L 14.621094 59.984375 Z M 14.621094 56.234375 " clip-rule="nonzero"/></clipPath><clipPath id="7be6594ac3"><path d="M 16.496094 56.234375 L 58.503906 56.234375 C 59 56.234375 59.476562 56.429688 59.828125 56.78125 C 60.179688 57.136719 60.378906 57.613281 60.378906 58.109375 C 60.378906 58.605469 60.179688 59.082031 59.828125 59.433594 C 59.476562 59.785156 59 59.984375 58.503906 59.984375 L 16.496094 59.984375 C 16 59.984375 15.523438 59.785156 15.171875 59.433594 C 14.820312 59.082031 14.621094 58.605469 14.621094 58.109375 C 14.621094 57.613281 14.820312 57.136719 15.171875 56.78125 C 15.523438 56.429688 16 56.234375 16.496094 56.234375 Z M 16.496094 56.234375 " clip-rule="nonzero"/></clipPath><clipPath id="59de1a2889"><path d="M 35.625 15.011719 L 39.375 15.011719 L 39.375 58.105469 L 35.625 58.105469 Z M 35.625 15.011719 " clip-rule="nonzero"/></clipPath><clipPath id="bab7d3cc48"><path d="M 35.625 56.230469 L 35.625 16.890625 C 35.625 16.390625 35.820312 15.914062 36.171875 15.5625 C 36.523438 15.210938 37 15.015625 37.5 15.015625 C 37.996094 15.015625 38.472656 15.210938 38.824219 15.5625 C 39.175781 15.914062 39.375 16.390625 39.375 16.890625 L 39.375 56.230469 C 39.375 56.730469 39.175781 57.207031 38.824219 57.558594 C 38.472656 57.910156 37.996094 58.105469 37.5 58.105469 C 37 58.105469 36.523438 57.910156 36.171875 57.558594 C 35.820312 57.207031 35.625 56.730469 35.625 56.230469 Z M 35.625 56.230469 " clip-rule="nonzero"/></clipPath><clipPath id="d4c5f3bef4"><path d="M 19 15 L 40 15 L 40 36 L 19 36 Z M 19 15 " clip-rule="nonzero"/></clipPath><clipPath id="7d2ffcd464"><path d="M 18.578125 33.160156 L 37.480469 14.257812 L 40.132812 16.910156 L 21.230469 35.8125 Z M 18.578125 33.160156 " clip-rule="nonzero"/></clipPath><clipPath id="b6296c46b4"><path d="M 19.902344 31.835938 L 36.148438 15.589844 C 36.5 15.238281 36.976562 15.042969 37.472656 15.042969 C 37.96875 15.042969 38.445312 15.238281 38.796875 15.589844 C 39.152344 15.941406 39.347656 16.417969 39.347656 16.917969 C 39.347656 17.414062 39.152344 17.890625 38.796875 18.242188 L 22.554688 34.484375 C 22.203125 34.835938 21.726562 35.035156 21.230469 35.035156 C 20.734375 35.035156 20.253906 34.835938 19.902344 34.484375 C 19.550781 34.132812 19.355469 33.65625 19.355469 33.160156 C 19.355469 32.664062 19.550781 32.1875 19.902344 31.835938 Z M 19.902344 31.835938 " clip-rule="nonzero"/></clipPath><clipPath id="3f96e87c34"><path d="M 35 15 L 56 15 L 56 36 L 35 36 Z M 35 15 " clip-rule="nonzero"/></clipPath><clipPath id="aa4b0253b7"><path d="M 37.527344 14.265625 L 56.429688 33.171875 L 53.777344 35.820312 L 34.875 16.917969 Z M 37.527344 14.265625 " clip-rule="nonzero"/></clipPath><clipPath id="b0c98b0319"><path d="M 38.851562 15.59375 L 55.09375 31.835938 C 55.445312 32.1875 55.644531 32.664062 55.644531 33.160156 C 55.644531 33.660156 55.445312 34.136719 55.09375 34.488281 C 54.742188 34.839844 54.265625 35.035156 53.769531 35.035156 C 53.273438 35.035156 52.796875 34.839844 52.445312 34.488281 L 36.199219 18.246094 C 35.847656 17.894531 35.652344 17.414062 35.652344 16.917969 C 35.652344 16.421875 35.847656 15.945312 36.199219 15.59375 C 36.550781 15.242188 37.027344 15.042969 37.527344 15.042969 C 38.023438 15.042969 38.5 15.242188 38.851562 15.59375 Z M 38.851562 15.59375 " clip-rule="nonzero"/></clipPath></defs><g clip-path="url(#c62e3b0b20)"><g clip-path="url(#7be6594ac3)"><path fill="#222222" d="M 14.621094 56.234375 L 60.382812 56.234375 L 60.382812 59.984375 L 14.621094 59.984375 Z M 14.621094 56.234375 " fill-opacity="1" fill-rule="nonzero"/></g></g><g clip-path="url(#59de1a2889)"><g clip-path="url(#bab7d3cc48)"><path fill="#222222" d="M 35.625 58.105469 L 35.625 15.011719 L 39.375 15.011719 L 39.375 58.105469 Z M 35.625 58.105469 " fill-opacity="1" fill-rule="nonzero"/></g></g><g clip-path="url(#d4c5f3bef4)"><g clip-path="url(#7d2ffcd464)"><g clip-path="url(#b6296c46b4)"><path fill="#222222" d="M 18.578125 33.160156 L 37.472656 14.265625 L 40.121094 16.917969 L 21.230469 35.8125 Z M 18.578125 33.160156 " fill-opacity="1" fill-rule="nonzero"/></g></g></g><g clip-path="url(#3f96e87c34)"><g clip-path="url(#aa4b0253b7)"><g clip-path="url(#b0c98b0319)"><path fill="#222222" d="M 37.527344 14.265625 L 56.417969 33.160156 L 53.769531 35.8125 L 34.875 16.917969 Z M 37.527344 14.265625 " fill-opacity="1" fill-rule="nonzero"/></g></g></g></svg>