<svg xmlns="http://www.w3.org/2000/svg" xmlns:xlink="http://www.w3.org/1999/xlink" width="100" zoomAndPan="magnify" viewBox="0 0 75 74.999997" height="100" preserveAspectRatio="xMidYMid meet" version="1.0"><defs><clipPath id="7cb8eefd54"><path d="M 35.625 7.5 L 39.375 7.5 L 39.375 66.753906 L 35.625 66.753906 Z M 35.625 7.5 " clip-rule="nonzero"/></clipPath><clipPath id="29a7d0fcc2"><path d="M 39.375 9.375 L 39.375 64.875 C 39.375 65.371094 39.175781 65.847656 38.824219 66.199219 C 38.472656 66.550781 37.996094 66.75 37.5 66.75 C 37.003906 66.75 36.527344 66.550781 36.175781 66.199219 C 35.824219 65.847656 35.625 65.371094 35.625 64.875 L 35.625 9.375 C 35.625 8.878906 35.824219 8.402344 36.175781 8.050781 C 36.527344 7.699219 37.003906 7.5 37.5 7.5 C 37.996094 7.5 38.472656 7.699219 38.824219 8.050781 C 39.175781 8.402344 39.375 8.878906 39.375 9.375 Z M 39.375 9.375 " clip-rule="nonzero"/></clipPath><clipPath id="611a8a7316"><path d="M 35 46 L 56 46 L 56 67 L 35 67 Z M 35 46 " clip-rule="nonzero"/></clipPath><clipPath id="b4a4638d36"><path d="M 56.417969 48.605469 L 37.515625 67.507812 L 34.863281 64.859375 L 53.769531 45.953125 Z M 56.417969 48.605469 " clip-rule="nonzero"/></clipPath><clipPath id="20da18b28e"><path d="M 55.09375 49.933594 L 38.851562 66.175781 C 38.5 66.527344 38.023438 66.722656 37.523438 66.722656 C 37.027344 66.722656 36.550781 66.527344 36.199219 66.175781 C 35.847656 65.824219 35.648438 65.347656 35.648438 64.847656 C 35.648438 64.351562 35.847656 63.875 36.199219 63.523438 L 52.441406 47.28125 C 52.792969 46.929688 53.269531 46.730469 53.769531 46.730469 C 54.265625 46.730469 54.742188 46.929688 55.09375 47.28125 C 55.445312 47.632812 55.644531 48.109375 55.644531 48.605469 C 55.644531 49.101562 55.445312 49.582031 55.09375 49.933594 Z M 55.09375 49.933594 " clip-rule="nonzero"/></clipPath><clipPath id="1683f053d7"><path d="M 19 46 L 40 46 L 40 67 L 19 67 Z M 19 46 " clip-rule="nonzero"/></clipPath><clipPath id="ff8bed9a40"><path d="M 37.472656 67.5 L 18.566406 48.597656 L 21.21875 45.945312 L 40.121094 64.847656 Z M 37.472656 67.5 " clip-rule="nonzero"/></clipPath><clipPath id="79b038194f"><path d="M 36.144531 66.171875 L 19.902344 49.929688 C 19.550781 49.578125 19.351562 49.101562 19.351562 48.605469 C 19.351562 48.105469 19.550781 47.628906 19.902344 47.277344 C 20.253906 46.925781 20.730469 46.730469 21.226562 46.730469 C 21.726562 46.730469 22.203125 46.925781 22.554688 47.277344 L 38.796875 63.523438 C 39.148438 63.875 39.347656 64.351562 39.347656 64.847656 C 39.347656 65.34375 39.148438 65.820312 38.796875 66.171875 C 38.445312 66.523438 37.96875 66.722656 37.472656 66.722656 C 36.972656 66.722656 36.496094 66.523438 36.144531 66.171875 Z M 36.144531 66.171875 " clip-rule="nonzero"/></clipPath><clipPath id="b9ae83e94b"><path d="M 36 40 L 48 40 L 48 52 L 36 52 Z M 36 40 " clip-rule="nonzero"/></clipPath><clipPath id="45d68ed675"><path d="M 35.625 49.820312 L 46.015625 39.429688 L 48.664062 42.082031 L 38.277344 52.472656 Z M 35.625 49.820312 " clip-rule="nonzero"/></clipPath><clipPath id="ea9dc4b9f4"><path d="M 36.949219 48.492188 L 44.683594 40.761719 C 45.035156 40.410156 45.511719 40.210938 46.007812 40.210938 C 46.503906 40.210938 46.984375 40.410156 47.335938 40.761719 C 47.6875 41.113281 47.882812 41.589844 47.882812 42.085938 C 47.882812 42.585938 47.6875 43.0625 47.335938 43.414062 L 39.601562 51.144531 C 39.25 51.496094 38.773438 51.695312 38.277344 51.695312 C 37.777344 51.695312 37.300781 51.496094 36.949219 51.144531 C 36.597656 50.792969 36.402344 50.316406 36.402344 49.820312 C 36.402344 49.320312 36.597656 48.84375 36.949219 48.492188 Z M 36.949219 48.492188 " clip-rule="nonzero"/></clipPath><clipPath id="edad1c10c2"><path d="M 27 40 L 39 40 L 39 52 L 27 52 Z M 27 40 " clip-rule="nonzero"/></clipPath><clipPath id="3d159ba5a7"><path d="M 28.992188 39.4375 L 39.378906 49.824219 L 36.730469 52.476562 L 26.339844 42.089844 Z M 28.992188 39.4375 " clip-rule="nonzero"/></clipPath><clipPath id="2acc61aff0"><path d="M 30.316406 40.761719 L 38.050781 48.492188 C 38.402344 48.84375 38.597656 49.324219 38.597656 49.820312 C 38.597656 50.316406 38.402344 50.792969 38.050781 51.144531 C 37.699219 51.496094 37.21875 51.695312 36.722656 51.695312 C 36.226562 51.695312 35.75 51.496094 35.398438 51.144531 L 27.664062 43.414062 C 27.3125 43.0625 27.117188 42.585938 27.117188 42.089844 C 27.117188 41.589844 27.3125 41.113281 27.664062 40.761719 C 28.015625 40.410156 28.492188 40.214844 28.992188 40.214844 C 29.488281 40.214844 29.964844 40.410156 30.316406 40.761719 Z M 30.316406 40.761719 " clip-rule="nonzero"/></clipPath><clipPath id="7c5a6e75d2"><path d="M 26.339844 39.4375 L 48.664062 39.4375 L 48.664062 43.1875 L 26.339844 43.1875 Z M 26.339844 39.4375 " clip-rule="nonzero"/></clipPath><clipPath id="b1976babaa"><path d="M 28.214844 39.4375 L 46.785156 39.4375 C 47.28125 39.4375 47.757812 39.632812 48.109375 39.984375 C 48.460938 40.335938 48.660156 40.8125 48.660156 41.3125 C 48.660156 41.808594 48.460938 42.285156 48.109375 42.636719 C 47.757812 42.988281 47.28125 43.1875 46.785156 43.1875 L 28.214844 43.1875 C 27.71875 43.1875 27.242188 42.988281 26.890625 42.636719 C 26.539062 42.285156 26.339844 41.808594 26.339844 41.3125 C 26.339844 40.8125 26.539062 40.335938 26.890625 39.984375 C 27.242188 39.632812 27.71875 39.4375 28.214844 39.4375 Z M 28.214844 39.4375 " clip-rule="nonzero"/></clipPath></defs><g clip-path="url(#7cb8eefd54)"><g clip-path="url(#29a7d0fcc2)"><path fill="#222222" d="M 39.375 7.5 L 39.375 66.753906 L 35.625 66.753906 L 35.625 7.5 Z M 39.375 7.5 " fill-opacity="1" fill-rule="nonzero"/></g></g><g clip-path="url(#611a8a7316)"><g clip-path="url(#b4a4638d36)"><g clip-path="url(#20da18b28e)"><path fill="#222222" d="M 56.417969 48.605469 L 37.527344 67.5 L 34.875 64.847656 L 53.769531 45.953125 Z M 56.417969 48.605469 " fill-opacity="1" fill-rule="nonzero"/></g></g></g><g clip-path="url(#1683f053d7)"><g clip-path="url(#ff8bed9a40)"><g clip-path="url(#79b038194f)"><path fill="#222222" d="M 37.472656 67.5 L 18.578125 48.605469 L 21.230469 45.953125 L 40.121094 64.847656 Z M 37.472656 67.5 " fill-opacity="1" fill-rule="nonzero"/></g></g></g><g clip-path="url(#b9ae83e94b)"><g clip-path="url(#45d68ed675)"><g clip-path="url(#ea9dc4b9f4)"><path fill="#222222" d="M 35.625 49.820312 L 46.003906 39.441406 L 48.65625 42.09375 L 38.277344 52.472656 Z M 35.625 49.820312 " fill-opacity="1" fill-rule="nonzero"/></g></g></g><g clip-path="url(#edad1c10c2)"><g clip-path="url(#3d159ba5a7)"><g clip-path="url(#2acc61aff0)"><path fill="#222222" d="M 28.992188 39.4375 L 39.371094 49.816406 L 36.71875 52.464844 L 26.339844 42.089844 Z M 28.992188 39.4375 " fill-opacity="1" fill-rule="nonzero"/></g></g></g><g clip-path="url(#7c5a6e75d2)"><g clip-path="url(#b1976babaa)"><path fill="#222222" d="M 26.339844 39.4375 L 48.664062 39.4375 L 48.664062 43.1875 L 26.339844 43.1875 Z M 26.339844 39.4375 " fill-opacity="1" fill-rule="nonzero"/></g></g></svg>