<?xml version="1.0" encoding="UTF-8" standalone="no"?>
<!DOCTYPE svg PUBLIC "-//W3C//DTD SVG 1.1//EN" "http://www.w3.org/Graphics/SVG/1.1/DTD/svg11.dtd">
<svg width="70.08" height="70.08" viewBox="0.00 0.00 292.00 292.00" xmlns="http://www.w3.org/2000/svg" xmlns:xlink="http://www.w3.org/1999/xlink">
<g stroke-linecap="round" id="Calque_2">
<path d="M130.00,60.00 C133.95,63.51 149.31,77.12 150.07,77.84 C153.38,80.95 159.29,87.91 161.80,91.67 C164.32,95.49 168.31,103.36 169.68,107.04 C172.27,114.08 175.15,129.14 175.50,137.49 C175.82,145.68 174.80,161.38 173.51,168.14 C172.78,171.85 170.66,179.43 169.08,183.25 C167.40,187.28 163.19,194.35 160.68,197.39 C158.17,200.36 152.51,205.27 149.50,207.07 C146.56,208.80 139.99,211.17 136.32,211.64 C132.56,212.07 124.65,211.53 120.51,210.55 C116.28,209.52 108.39,206.38 105.31,204.49 C102.39,202.65 97.67,197.96 96.12,194.85 C94.57,191.63 93.77,184.33 94.52,180.02 C95.23,176.14 97.63,169.30 99.29,166.44 C100.15,165.03 102.47,162.27 103.87,161.08 C105.35,159.86 108.89,158.12 110.79,157.66 C114.10,156.91 122.18,157.17 124.33,158.00 C126.95,159.08 129.64,161.34 130.96,163.67 C131.21,164.11 132.95,167.91 133.67,169.33" fill="none" stroke="rgb(0, 0, 0)" stroke-width="7.00" stroke-opacity="1.00" stroke-linejoin="miter"/>
</g>
</svg>
