<?xml version="1.0" encoding="UTF-8" standalone="no"?>
<!DOCTYPE svg PUBLIC "-//W3C//DTD SVG 1.1//EN" "http://www.w3.org/Graphics/SVG/1.1/DTD/svg11.dtd">
<svg width="69.94" height="69.94" viewBox="0.00 0.00 340.00 340.00" xmlns="http://www.w3.org/2000/svg" xmlns:xlink="http://www.w3.org/1999/xlink">
<g stroke-linecap="round" id="Calque_2">
<path d="M170.45,92.73 C165.35,92.47 152.47,91.82 144.70,91.43 C135.28,90.90 118.61,88.18 110.91,85.91 C101.94,83.23 87.84,76.53 78.84,70.79 C73.31,67.25 65.93,62.54 64.09,61.36" fill="none" stroke="rgb(0, 0, 0)" stroke-width="7.00" stroke-opacity="1.00" stroke-linejoin="miter"/>
<path d="M170.04,92.73 C175.15,92.47 188.02,91.82 195.79,91.43 C205.22,90.90 221.88,88.18 229.59,85.91 C238.56,83.23 252.66,76.53 261.65,70.79 C267.19,67.25 274.57,62.54 276.40,61.36" fill="none" stroke="rgb(0, 0, 0)" stroke-width="7.00" stroke-opacity="1.00" stroke-linejoin="miter"/>
<path d="M61.36,60.45 C67.45,72.06 83.79,103.34 88.42,115.34 C91.67,123.87 95.42,140.18 95.45,147.40 C95.45,149.86 93.30,202.52 92.67,206.91 C91.50,214.87 86.42,230.59 82.34,239.19 C77.88,248.51 60.26,277.28 56.36,283.64" fill="none" stroke="rgb(0, 0, 0)" stroke-width="7.00" stroke-opacity="1.00" stroke-linejoin="miter"/>
<path d="M279.13,60.45 C273.05,72.06 256.71,103.34 252.08,115.34 C248.82,123.87 245.08,140.18 245.05,147.40 C245.05,149.86 247.20,202.52 247.82,206.91 C249.00,214.87 254.07,230.59 258.16,239.19 C262.61,248.51 280.23,277.28 284.13,283.64" fill="none" stroke="rgb(0, 0, 0)" stroke-width="7.00" stroke-opacity="1.00" stroke-linejoin="miter"/>
<path d="M170.00,246.36 C165.35,247.05 150.07,249.31 145.62,250.30 C137.11,252.23 118.76,258.37 111.18,261.17 C98.94,265.95 67.67,279.35 57.73,283.64" fill="none" stroke="rgb(0, 0, 0)" stroke-width="7.00" stroke-opacity="1.00" stroke-linejoin="miter"/>
<path d="M170.50,246.36 C175.15,247.05 190.43,249.31 194.88,250.30 C203.38,252.23 221.73,258.37 229.32,261.17 C241.56,265.95 272.82,279.35 282.77,283.64" fill="none" stroke="rgb(0, 0, 0)" stroke-width="7.00" stroke-opacity="1.00" stroke-linejoin="miter"/>
<path d="M9.55,170.00 L93.18,169.55" fill="none" stroke="rgb(0, 0, 0)" stroke-width="7.00" stroke-opacity="1.00" stroke-linejoin="round"/>
<path d="M330.95,170.00 L247.31,169.55" fill="none" stroke="rgb(0, 0, 0)" stroke-width="7.00" stroke-opacity="1.00" stroke-linejoin="round"/>
<path d="M44.50,145.50 L93.50,145.50" fill="none" stroke="rgb(0, 0, 0)" stroke-width="7.00" stroke-opacity="1.00" stroke-linejoin="round"/>
<path d="M295.50,145.50 L247.50,145.50" fill="none" stroke="rgb(0, 0, 0)" stroke-width="7.00" stroke-opacity="1.00" stroke-linejoin="round"/>
<path d="M43.50,196.50 L90.50,196.50" fill="none" stroke="rgb(0, 0, 0)" stroke-width="7.00" stroke-opacity="1.00" stroke-linejoin="round"/>
<path d="M296.50,196.50 L249.50,196.50" fill="none" stroke="rgb(0, 0, 0)" stroke-width="7.00" stroke-opacity="1.00" stroke-linejoin="round"/>
<path d="M144.50,45.50 L144.50,88.50" fill="none" stroke="rgb(0, 0, 0)" stroke-width="7.00" stroke-opacity="1.00" stroke-linejoin="round"/>
<path d="M195.50,45.50 L195.50,88.50" fill="none" stroke="rgb(0, 0, 0)" stroke-width="7.00" stroke-opacity="1.00" stroke-linejoin="round"/>
<path d="M170.50,10.50 L170.50,89.50" fill="none" stroke="rgb(0, 0, 0)" stroke-width="7.00" stroke-opacity="1.00" stroke-linejoin="round"/>
<path d="M170.50,10.50 L170.50,89.50" fill="none" stroke="rgb(0, 0, 0)" stroke-width="7.00" stroke-opacity="1.00" stroke-linejoin="round"/>
<path d="M169.50,324.50 L169.50,249.50" fill="none" stroke="rgb(0, 0, 0)" stroke-width="7.00" stroke-opacity="1.00" stroke-linejoin="round"/>
<path d="M170.50,324.50 L170.50,249.50" fill="none" stroke="rgb(0, 0, 0)" stroke-width="7.00" stroke-opacity="1.00" stroke-linejoin="round"/>
<path d="M195.50,291.50 L195.50,253.50" fill="none" stroke="rgb(0, 0, 0)" stroke-width="7.00" stroke-opacity="1.00" stroke-linejoin="round"/>
<path d="M145.50,291.50 L145.50,253.50" fill="none" stroke="rgb(0, 0, 0)" stroke-width="7.00" stroke-opacity="1.00" stroke-linejoin="round"/>
</g>
</svg>
