<?xml version="1.0" encoding="UTF-8" standalone="no"?>
<!DOCTYPE svg PUBLIC "-//W3C//DTD SVG 1.1//EN" "http://www.w3.org/Graphics/SVG/1.1/DTD/svg11.dtd">
<svg width="69.94" height="69.94" viewBox="0.00 0.00 340.00 340.00" xmlns="http://www.w3.org/2000/svg" xmlns:xlink="http://www.w3.org/1999/xlink">
<g stroke-linecap="round" id="Calque_2">
<path d="M154.74,84.35 C161.30,83.22 176.97,83.27 184.44,84.44 C190.98,85.50 205.77,91.02 212.29,94.68 C218.72,98.33 230.01,108.03 234.92,113.78 C237.22,116.50 241.66,122.62 243.45,125.84 C247.10,132.46 252.48,147.19 253.65,153.74 C254.78,160.30 254.73,175.97 253.56,183.44 C252.50,189.98 246.98,204.77 243.32,211.29 C239.67,217.72 229.97,229.01 224.22,233.92 C221.50,236.22 215.38,240.66 212.16,242.45 C205.54,246.10 190.81,251.48 184.26,252.65 C177.70,253.78 162.03,253.73 154.56,252.56 C148.02,251.50 133.23,245.98 126.71,242.32 C120.28,238.67 108.99,228.97 104.08,223.22 C101.78,220.50 97.34,214.38 95.55,211.16 C91.90,204.54 86.52,189.81 85.35,183.26 C84.22,176.70 84.27,161.03 85.44,153.56 C86.50,147.02 92.02,132.23 95.68,125.71 C99.33,119.28 109.03,107.99 114.78,103.08 C117.50,100.78 123.62,96.34 126.84,94.55 C133.46,90.90 148.19,85.52 154.74,84.35 Z" fill="none" stroke="rgb(0, 0, 0)" stroke-width="7.12" stroke-opacity="1.00" stroke-linejoin="round"/>
<path d="M44.49,195.00 L85.50,153.99" fill="none" stroke="rgb(0, 0, 0)" stroke-width="7.00" stroke-opacity="1.00" stroke-linejoin="round"/>
<path d="M254.00,187.00 L293.00,148.00" fill="none" stroke="rgb(0, 0, 0)" stroke-width="7.00" stroke-opacity="1.00" stroke-linejoin="round"/>
<path d="M250.60,188.32 C246.60,184.36 236.42,174.35 230.25,168.31 C221.34,160.03 211.12,151.46 204.69,146.42 C200.94,143.56 194.97,139.85 191.63,138.31 C188.24,136.79 181.11,134.73 177.38,134.26 C173.56,133.82 165.84,134.16 161.99,134.92 C158.30,135.67 151.48,138.30 149.02,139.89 C145.65,142.13 140.38,147.91 138.03,151.94 C137.80,152.34 133.30,160.46 132.13,162.57" fill="none" stroke="rgb(0, 0, 0)" stroke-width="7.00" stroke-opacity="1.00" stroke-linejoin="miter"/>
<path d="M169.80,170.55 L169.80,170.55" fill="none" stroke="rgb(0, 0, 0)" stroke-width="25.00" stroke-opacity="1.00" stroke-linejoin="round"/>
<path d="M88.96,153.49 C92.88,157.54 102.86,167.75 108.91,173.91 C117.64,182.37 127.70,191.14 134.02,196.31 C137.71,199.25 143.60,203.08 146.91,204.68 C150.27,206.27 157.35,208.47 161.08,209.01 C164.89,209.54 172.62,209.35 176.48,208.67 C180.18,207.99 187.05,205.50 189.55,203.96 C192.96,201.79 198.35,196.11 200.77,192.13 C201.01,191.74 205.67,183.71 206.89,181.63" fill="none" stroke="rgb(0, 0, 0)" stroke-width="7.00" stroke-opacity="1.00" stroke-linejoin="miter"/>
</g>
</svg>
