<svg xmlns="http://www.w3.org/2000/svg" xmlns:xlink="http://www.w3.org/1999/xlink" width="100" zoomAndPan="magnify" viewBox="0 0 75 74.999997" height="100" preserveAspectRatio="xMidYMid meet" version="1.0"><defs><clipPath id="f8d0809683"><path d="M 19 7 L 40 7 L 40 28 L 19 28 Z M 19 7 " clip-rule="nonzero"/></clipPath><clipPath id="e02e738bec"><path d="M 18.578125 25.644531 L 37.480469 6.742188 L 40.132812 9.390625 L 21.230469 28.296875 Z M 18.578125 25.644531 " clip-rule="nonzero"/></clipPath><clipPath id="a76f3599af"><path d="M 19.902344 24.316406 L 36.148438 8.074219 C 36.5 7.722656 36.976562 7.527344 37.472656 7.527344 C 37.96875 7.527344 38.445312 7.722656 38.796875 8.074219 C 39.152344 8.425781 39.347656 8.902344 39.347656 9.402344 C 39.347656 9.898438 39.152344 10.375 38.796875 10.726562 L 22.554688 26.96875 C 22.203125 27.320312 21.726562 27.519531 21.230469 27.519531 C 20.734375 27.519531 20.253906 27.320312 19.902344 26.96875 C 19.550781 26.617188 19.355469 26.140625 19.355469 25.644531 C 19.355469 25.148438 19.550781 24.667969 19.902344 24.316406 Z M 19.902344 24.316406 " clip-rule="nonzero"/></clipPath><clipPath id="4d0c968f18"><path d="M 35 7 L 56 7 L 56 28 L 35 28 Z M 35 7 " clip-rule="nonzero"/></clipPath><clipPath id="e774cbf7fe"><path d="M 37.527344 6.75 L 56.429688 25.652344 L 53.777344 28.304688 L 34.875 9.402344 Z M 37.527344 6.75 " clip-rule="nonzero"/></clipPath><clipPath id="6885596d55"><path d="M 38.851562 8.078125 L 55.09375 24.320312 C 55.445312 24.671875 55.644531 25.148438 55.644531 25.644531 C 55.644531 26.144531 55.445312 26.621094 55.09375 26.972656 C 54.742188 27.324219 54.265625 27.519531 53.769531 27.519531 C 53.273438 27.519531 52.796875 27.324219 52.445312 26.972656 L 36.199219 10.726562 C 35.847656 10.375 35.652344 9.898438 35.652344 9.402344 C 35.652344 8.90625 35.847656 8.429688 36.199219 8.078125 C 36.550781 7.726562 37.027344 7.527344 37.527344 7.527344 C 38.023438 7.527344 38.5 7.726562 38.851562 8.078125 Z M 38.851562 8.078125 " clip-rule="nonzero"/></clipPath><clipPath id="e61046df58"><path d="M 24 51 L 40 51 L 40 67 L 24 67 Z M 24 51 " clip-rule="nonzero"/></clipPath><clipPath id="167bfbddc7"><path d="M 25.917969 50.628906 L 40.140625 64.847656 L 37.488281 67.5 L 23.265625 53.28125 Z M 25.917969 50.628906 " clip-rule="nonzero"/></clipPath><clipPath id="fc53051a28"><path d="M 27.242188 51.953125 L 38.8125 63.523438 C 39.164062 63.875 39.363281 64.351562 39.363281 64.847656 C 39.363281 65.347656 39.164062 65.824219 38.8125 66.175781 C 38.460938 66.527344 37.984375 66.722656 37.488281 66.722656 C 36.992188 66.722656 36.511719 66.527344 36.160156 66.175781 L 24.59375 54.605469 C 24.242188 54.253906 24.042969 53.777344 24.042969 53.28125 C 24.042969 52.78125 24.242188 52.304688 24.59375 51.953125 C 24.945312 51.601562 25.421875 51.40625 25.917969 51.40625 C 26.414062 51.40625 26.890625 51.601562 27.242188 51.953125 Z M 27.242188 51.953125 " clip-rule="nonzero"/></clipPath><clipPath id="7f7d250c46"><path d="M 24 40 L 39 40 L 39 56 L 24 56 Z M 24 40 " clip-rule="nonzero"/></clipPath><clipPath id="964238fa30"><path d="M 39.367188 42.792969 L 26.097656 56.0625 L 23.253906 53.214844 L 36.523438 39.945312 Z M 39.367188 42.792969 " clip-rule="nonzero"/></clipPath><clipPath id="0501d941a3"><path d="M 37.945312 44.214844 L 27.527344 54.632812 C 26.742188 55.417969 25.46875 55.417969 24.683594 54.632812 C 23.894531 53.847656 23.894531 52.574219 24.683594 51.789062 L 35.101562 41.367188 C 35.886719 40.582031 37.160156 40.582031 37.945312 41.367188 C 38.730469 42.15625 38.730469 43.429688 37.945312 44.214844 Z M 37.945312 44.214844 " clip-rule="nonzero"/></clipPath><clipPath id="356cb5a3d3"><path d="M 35.621094 44.433594 L 39.371094 44.433594 L 39.371094 66.757812 L 35.621094 66.757812 Z M 35.621094 44.433594 " clip-rule="nonzero"/></clipPath><clipPath id="d14803646b"><path d="M 39.371094 46.308594 L 39.371094 64.878906 C 39.371094 65.375 39.171875 65.851562 38.820312 66.203125 C 38.46875 66.554688 37.992188 66.753906 37.496094 66.753906 C 37 66.753906 36.523438 66.554688 36.171875 66.203125 C 35.820312 65.851562 35.621094 65.375 35.621094 64.878906 L 35.621094 46.308594 C 35.621094 45.8125 35.820312 45.335938 36.171875 44.984375 C 36.523438 44.632812 37 44.433594 37.496094 44.433594 C 37.992188 44.433594 38.46875 44.632812 38.820312 44.984375 C 39.171875 45.335938 39.371094 45.8125 39.371094 46.308594 Z M 39.371094 46.308594 " clip-rule="nonzero"/></clipPath><clipPath id="2fc50ad851"><path d="M 35.625 44.425781 L 39.375 44.425781 L 39.375 64.1875 L 35.625 64.1875 Z M 35.625 44.425781 " clip-rule="nonzero"/></clipPath><clipPath id="7797606fab"><path d="M 35.625 62.3125 L 35.625 46.304688 C 35.625 45.804688 35.820312 45.328125 36.171875 44.976562 C 36.523438 44.625 37 44.429688 37.5 44.429688 C 37.996094 44.429688 38.472656 44.625 38.824219 44.976562 C 39.175781 45.328125 39.375 45.804688 39.375 46.304688 L 39.375 62.3125 C 39.375 62.808594 39.175781 63.289062 38.824219 63.640625 C 38.472656 63.992188 37.996094 64.1875 37.5 64.1875 C 37 64.1875 36.523438 63.992188 36.171875 63.640625 C 35.820312 63.289062 35.625 62.808594 35.625 62.3125 Z M 35.625 62.3125 " clip-rule="nonzero"/></clipPath><clipPath id="65f341c432"><path d="M 35.625 7.496094 L 39.375 7.496094 L 39.375 66.75 L 35.625 66.75 Z M 35.625 7.496094 " clip-rule="nonzero"/></clipPath><clipPath id="fd54e03bc6"><path d="M 35.625 64.875 L 35.625 9.375 C 35.625 8.878906 35.824219 8.402344 36.175781 8.050781 C 36.527344 7.699219 37.003906 7.5 37.5 7.5 C 37.996094 7.5 38.472656 7.699219 38.824219 8.050781 C 39.175781 8.402344 39.375 8.878906 39.375 9.375 L 39.375 64.875 C 39.375 65.371094 39.175781 65.847656 38.824219 66.199219 C 38.472656 66.550781 37.996094 66.75 37.5 66.75 C 37.003906 66.75 36.527344 66.550781 36.175781 66.199219 C 35.824219 65.847656 35.625 65.371094 35.625 64.875 Z M 35.625 64.875 " clip-rule="nonzero"/></clipPath><clipPath id="f4323b7ebf"><path d="M 35 39 L 51 39 L 51 56 L 35 56 Z M 35 39 " clip-rule="nonzero"/></clipPath><clipPath id="80bcd00f8c"><path d="M 49.09375 56.070312 L 34.871094 41.847656 L 37.523438 39.195312 L 51.746094 53.417969 Z M 49.09375 56.070312 " clip-rule="nonzero"/></clipPath><clipPath id="abd8b854d1"><path d="M 47.769531 54.742188 L 36.199219 43.175781 C 35.847656 42.820312 35.648438 42.34375 35.648438 41.847656 C 35.648438 41.351562 35.847656 40.875 36.199219 40.523438 C 36.550781 40.171875 37.027344 39.972656 37.523438 39.972656 C 38.023438 39.972656 38.5 40.171875 38.851562 40.523438 L 50.417969 52.09375 C 50.773438 52.445312 50.96875 52.921875 50.96875 53.417969 C 50.96875 53.914062 50.773438 54.390625 50.417969 54.742188 C 50.066406 55.09375 49.589844 55.292969 49.09375 55.292969 C 48.597656 55.292969 48.121094 55.09375 47.769531 54.742188 Z M 47.769531 54.742188 " clip-rule="nonzero"/></clipPath><clipPath id="2f02cb7a78"><path d="M 35 51 L 51 51 L 51 67 L 35 67 Z M 35 51 " clip-rule="nonzero"/></clipPath><clipPath id="3f72925f3b"><path d="M 34.875 64.664062 L 48.910156 50.628906 L 51.757812 53.472656 L 37.71875 67.511719 Z M 34.875 64.664062 " clip-rule="nonzero"/></clipPath><clipPath id="b0de456602"><path d="M 36.296875 63.242188 L 47.480469 52.058594 C 48.265625 51.273438 49.539062 51.273438 50.324219 52.058594 C 51.109375 52.84375 51.109375 54.121094 50.324219 54.90625 L 39.140625 66.085938 C 38.355469 66.875 37.082031 66.875 36.296875 66.085938 C 35.511719 65.300781 35.511719 64.027344 36.296875 63.242188 Z M 36.296875 63.242188 " clip-rule="nonzero"/></clipPath></defs><g clip-path="url(#f8d0809683)"><g clip-path="url(#e02e738bec)"><g clip-path="url(#a76f3599af)"><path fill="#222222" d="M 18.578125 25.644531 L 37.472656 6.75 L 40.121094 9.402344 L 21.230469 28.296875 Z M 18.578125 25.644531 " fill-opacity="1" fill-rule="nonzero"/></g></g></g><g clip-path="url(#4d0c968f18)"><g clip-path="url(#e774cbf7fe)"><g clip-path="url(#6885596d55)"><path fill="#222222" d="M 37.527344 6.75 L 56.417969 25.644531 L 53.769531 28.296875 L 34.875 9.402344 Z M 37.527344 6.75 " fill-opacity="1" fill-rule="nonzero"/></g></g></g><g clip-path="url(#e61046df58)"><g clip-path="url(#167bfbddc7)"><g clip-path="url(#fc53051a28)"><path fill="#222222" d="M 25.917969 50.628906 L 40.140625 64.847656 L 37.488281 67.5 L 23.265625 53.28125 Z M 25.917969 50.628906 " fill-opacity="1" fill-rule="nonzero"/></g></g></g><g clip-path="url(#7f7d250c46)"><g clip-path="url(#964238fa30)"><g clip-path="url(#0501d941a3)"><path fill="#222222" d="M 39.367188 42.792969 L 26.109375 56.050781 L 23.265625 53.203125 L 36.523438 39.945312 Z M 39.367188 42.792969 " fill-opacity="1" fill-rule="nonzero"/></g></g></g><g clip-path="url(#356cb5a3d3)"><g clip-path="url(#d14803646b)"><path fill="#222222" d="M 39.371094 44.433594 L 39.371094 66.757812 L 35.621094 66.757812 L 35.621094 44.433594 Z M 39.371094 44.433594 " fill-opacity="1" fill-rule="nonzero"/></g></g><g clip-path="url(#2fc50ad851)"><g clip-path="url(#7797606fab)"><path fill="#222222" d="M 35.625 64.1875 L 35.625 44.425781 L 39.375 44.425781 L 39.375 64.1875 Z M 35.625 64.1875 " fill-opacity="1" fill-rule="nonzero"/></g></g><g clip-path="url(#65f341c432)"><g clip-path="url(#fd54e03bc6)"><path fill="#222222" d="M 35.625 66.75 L 35.625 7.496094 L 39.375 7.496094 L 39.375 66.75 Z M 35.625 66.75 " fill-opacity="1" fill-rule="nonzero"/></g></g><g clip-path="url(#f4323b7ebf)"><g clip-path="url(#80bcd00f8c)"><g clip-path="url(#abd8b854d1)"><path fill="#222222" d="M 49.09375 56.070312 L 34.871094 41.847656 L 37.523438 39.195312 L 51.746094 53.417969 Z M 49.09375 56.070312 " fill-opacity="1" fill-rule="nonzero"/></g></g></g><g clip-path="url(#2f02cb7a78)"><g clip-path="url(#3f72925f3b)"><g clip-path="url(#b0de456602)"><path fill="#222222" d="M 34.875 64.664062 L 48.898438 50.640625 L 51.746094 53.484375 L 37.71875 67.511719 Z M 34.875 64.664062 " fill-opacity="1" fill-rule="nonzero"/></g></g></g></svg>