<?xml version="1.0" encoding="UTF-8" standalone="no"?>
<!DOCTYPE svg PUBLIC "-//W3C//DTD SVG 1.1//EN" "http://www.w3.org/Graphics/SVG/1.1/DTD/svg11.dtd">
<svg width="70.08" height="70.08" viewBox="0.00 0.00 292.00 292.00" xmlns="http://www.w3.org/2000/svg" xmlns:xlink="http://www.w3.org/1999/xlink">
<g stroke-linecap="round" id="Calque_2">
<path d="M123.42,121.21 C126.18,121.48 136.32,122.48 137.53,122.55 C142.03,122.78 150.03,121.42 153.28,119.81 C156.55,118.14 161.49,113.22 163.55,110.00 C165.47,106.90 167.49,100.65 167.47,97.17 C167.41,94.07 165.37,86.12 164.19,83.75 C163.45,82.31 161.28,79.25 160.08,77.97 C158.67,76.52 155.95,74.73 154.10,74.15 C150.58,73.09 143.77,73.51 141.17,73.96 C139.77,74.21 135.37,75.24 134.29,75.68 C132.64,76.40 129.72,78.81 128.47,80.50 C126.30,83.55 123.92,91.23 123.30,94.81 C122.29,100.83 121.92,116.66 122.57,125.74 C123.25,134.90 126.55,151.86 129.20,159.77 C132.04,168.16 140.36,183.98 145.73,191.04 C147.72,193.65 166.08,214.90 167.49,216.53" fill="none" stroke="rgb(0, 0, 0)" stroke-width="7.00" stroke-opacity="1.00" stroke-linejoin="miter"/>
</g>
</svg>
