<svg xmlns="http://www.w3.org/2000/svg" xmlns:xlink="http://www.w3.org/1999/xlink" width="100" zoomAndPan="magnify" viewBox="0 0 75 74.999997" height="100" preserveAspectRatio="xMidYMid meet" version="1.0"><defs><clipPath id="fbf5813bf1"><path d="M 16 18 L 40 18 L 40 57 L 16 57 Z M 16 18 " clip-rule="nonzero"/></clipPath><clipPath id="79b2581879"><path d="M 40.179688 20.097656 L 19.199219 57.09375 L 15.351562 54.910156 L 36.335938 17.914062 Z M 40.179688 20.097656 " clip-rule="nonzero"/></clipPath><clipPath id="93d28e6ebb"><path d="M 39.089844 22.019531 L 20.296875 55.15625 C 20.007812 55.664062 19.527344 56.039062 18.964844 56.195312 C 18.398438 56.351562 17.792969 56.277344 17.285156 55.988281 C 16.773438 55.699219 16.398438 55.21875 16.242188 54.652344 C 16.085938 54.089844 16.160156 53.484375 16.453125 52.972656 L 35.242188 19.839844 C 35.53125 19.328125 36.011719 18.953125 36.578125 18.796875 C 37.144531 18.640625 37.746094 18.714844 38.257812 19.003906 C 38.769531 19.292969 39.140625 19.773438 39.296875 20.339844 C 39.453125 20.90625 39.378906 21.507812 39.089844 22.019531 Z M 39.089844 22.019531 " clip-rule="nonzero"/></clipPath><clipPath id="971d037d50"><path d="M 35 18 L 59 18 L 59 57 L 35 57 Z M 35 18 " clip-rule="nonzero"/></clipPath><clipPath id="7656e97800"><path d="M 38.316406 18.078125 L 59.644531 54.878906 L 55.816406 57.097656 L 34.492188 20.296875 Z M 38.316406 18.078125 " clip-rule="nonzero"/></clipPath><clipPath id="c0d861e095"><path d="M 39.425781 19.992188 L 58.527344 52.949219 C 58.820312 53.457031 58.902344 54.0625 58.75 54.628906 C 58.597656 55.195312 58.230469 55.679688 57.722656 55.972656 C 57.214844 56.265625 56.609375 56.347656 56.042969 56.195312 C 55.476562 56.046875 54.992188 55.675781 54.699219 55.167969 L 35.597656 22.210938 C 35.304688 21.703125 35.222656 21.097656 35.375 20.53125 C 35.527344 19.964844 35.894531 19.480469 36.402344 19.1875 C 36.910156 18.894531 37.515625 18.8125 38.082031 18.964844 C 38.648438 19.113281 39.132812 19.484375 39.425781 19.992188 Z M 39.425781 19.992188 " clip-rule="nonzero"/></clipPath><clipPath id="67f95901c3"><path d="M 16.285156 52.21875 L 58.820312 52.21875 L 58.820312 56.644531 L 16.285156 56.644531 Z M 16.285156 52.21875 " clip-rule="nonzero"/></clipPath><clipPath id="446fb693f3"><path d="M 56.609375 56.644531 L 18.515625 56.644531 C 17.925781 56.644531 17.367188 56.410156 16.949219 55.996094 C 16.535156 55.582031 16.304688 55.019531 16.304688 54.429688 C 16.304688 53.84375 16.535156 53.28125 16.949219 52.867188 C 17.367188 52.453125 17.925781 52.21875 18.515625 52.21875 L 56.609375 52.21875 C 57.195312 52.21875 57.757812 52.453125 58.171875 52.867188 C 58.585938 53.28125 58.820312 53.84375 58.820312 54.429688 C 58.820312 55.019531 58.585938 55.582031 58.171875 55.996094 C 57.757812 56.410156 57.195312 56.644531 56.609375 56.644531 Z M 56.609375 56.644531 " clip-rule="nonzero"/></clipPath><clipPath id="a627c4321e"><path d="M 16.222656 33.152344 L 58.757812 33.152344 L 58.757812 37.574219 L 16.222656 37.574219 Z M 16.222656 33.152344 " clip-rule="nonzero"/></clipPath><clipPath id="b82eed4a0b"><path d="M 56.546875 37.574219 L 18.453125 37.574219 C 17.867188 37.574219 17.304688 37.34375 16.886719 36.929688 C 16.472656 36.511719 16.242188 35.953125 16.242188 35.363281 C 16.242188 34.777344 16.472656 34.214844 16.886719 33.800781 C 17.304688 33.386719 17.867188 33.152344 18.453125 33.152344 L 56.546875 33.152344 C 57.132812 33.152344 57.695312 33.386719 58.109375 33.800781 C 58.523438 34.214844 58.757812 34.777344 58.757812 35.363281 C 58.757812 35.953125 58.523438 36.511719 58.109375 36.929688 C 57.695312 37.34375 57.132812 37.574219 56.546875 37.574219 Z M 56.546875 37.574219 " clip-rule="nonzero"/></clipPath></defs><g clip-path="url(#fbf5813bf1)"><g clip-path="url(#79b2581879)"><g clip-path="url(#93d28e6ebb)"><path fill="#222222" d="M 40.179688 20.097656 L 19.207031 57.078125 L 15.359375 54.898438 L 36.335938 17.914062 Z M 40.179688 20.097656 " fill-opacity="1" fill-rule="nonzero"/></g></g></g><g clip-path="url(#971d037d50)"><g clip-path="url(#7656e97800)"><g clip-path="url(#c0d861e095)"><path fill="#222222" d="M 38.316406 18.078125 L 59.632812 54.863281 L 55.808594 57.082031 L 34.492188 20.296875 Z M 38.316406 18.078125 " fill-opacity="1" fill-rule="nonzero"/></g></g></g><g clip-path="url(#67f95901c3)"><g clip-path="url(#446fb693f3)"><path fill="#222222" d="M 58.820312 56.644531 L 16.304688 56.644531 L 16.304688 52.21875 L 58.820312 52.21875 Z M 58.820312 56.644531 " fill-opacity="1" fill-rule="nonzero"/></g></g><g clip-path="url(#a627c4321e)"><g clip-path="url(#b82eed4a0b)"><path fill="#222222" d="M 58.757812 37.574219 L 16.242188 37.574219 L 16.242188 33.152344 L 58.757812 33.152344 Z M 58.757812 37.574219 " fill-opacity="1" fill-rule="nonzero"/></g></g></svg>