<?xml version="1.0" encoding="UTF-8" standalone="no"?>
<!DOCTYPE svg PUBLIC "-//W3C//DTD SVG 1.1//EN" "http://www.w3.org/Graphics/SVG/1.1/DTD/svg11.dtd">
<svg width="500.00" height="500.00" viewBox="0.00 0.00 500.00 500.00" xmlns="http://www.w3.org/2000/svg" xmlns:xlink="http://www.w3.org/1999/xlink">
<g stroke-linecap="round" id="Calque_2">
<path d="M278.67,102.79 C275.37,114.50 272.72,122.97 268.68,128.83 C266.63,131.75 262.21,136.55 259.36,139.01 C253.71,143.82 241.38,150.80 234.21,153.69 C226.42,156.80 213.34,160.22 205.10,161.45 C197.63,162.55 182.71,163.40 175.26,162.99 C167.78,162.55 152.07,160.22 145.98,158.64 C138.99,156.80 124.03,150.80 117.83,147.31 C114.72,145.54 108.76,141.31 106.05,139.01 C103.20,136.55 98.78,131.75 96.73,128.83 C92.69,122.97 90.04,114.50 86.74,102.79" fill="none" stroke="rgb(0, 0, 0)" stroke-width="7.00" stroke-opacity="1.00" stroke-linejoin="round"/>
<path d="M182.36,162.70 C182.36,162.70 181.00,259.54 181.00,259.54" fill="none" stroke="rgb(0, 0, 0)" stroke-width="7.00" stroke-opacity="1.00" stroke-linejoin="miter"/>
<path d="M181.77,256.98 C189.45,248.93 197.35,241.88 204.71,236.91 C211.18,232.57 224.40,225.23 231.32,222.78 C237.96,220.47 250.53,218.03 261.61,216.46 C272.96,215.09 287.51,214.07 294.79,214.25 C303.08,214.48 318.71,216.18 326.51,217.60 C334.43,219.06 350.52,223.60 357.39,226.28 C361.00,227.71 368.09,231.12 370.68,232.67 C374.19,234.81 380.49,239.69 383.40,242.53 C389.28,248.34 396.11,257.46 400.39,265.97 C400.70,266.56 401.00,267.16 401.31,267.76" fill="none" stroke="rgb(0, 0, 0)" stroke-width="7.00" stroke-opacity="1.00" stroke-linejoin="round"/>
<path d="M333.06,346.28 L400.00,267.77" fill="none" stroke="rgb(0, 0, 0)" stroke-width="7.00" stroke-opacity="1.00" stroke-linejoin="round"/>
<path d="M159.50,346.28 L280.99,216.94" fill="none" stroke="rgb(0, 0, 0)" stroke-width="7.00" stroke-opacity="1.00" stroke-linejoin="round"/>
<path d="M134.50,370.50 L166.50,370.50" fill="none" stroke="rgb(0, 0, 0)" stroke-width="7.00" stroke-opacity="1.00" stroke-linejoin="round"/>
<path d="M134.50,393.50 L166.50,393.50" fill="none" stroke="rgb(0, 0, 0)" stroke-width="7.00" stroke-opacity="1.00" stroke-linejoin="round"/>
<path d="M321.50,370.50 L353.50,370.50" fill="none" stroke="rgb(0, 0, 0)" stroke-width="7.00" stroke-opacity="1.00" stroke-linejoin="round"/>
<path d="M321.50,393.50 L353.50,393.50" fill="none" stroke="rgb(0, 0, 0)" stroke-width="7.00" stroke-opacity="1.00" stroke-linejoin="round"/>
<path d="M56.20,222.73 L133.88,183.47 L132.64,252.89 L56.20,222.73 Z" fill="none" stroke="rgb(0, 0, 0)" stroke-width="7.00" stroke-opacity="1.00" stroke-linejoin="miter"/>
</g>
</svg>
