<?xml version="1.0" encoding="UTF-8" standalone="no"?>
<!DOCTYPE svg PUBLIC "-//W3C//DTD SVG 1.1//EN" "http://www.w3.org/Graphics/SVG/1.1/DTD/svg11.dtd">
<svg width="70.08" height="70.08" viewBox="0.00 0.00 292.00 292.00" xmlns="http://www.w3.org/2000/svg" xmlns:xlink="http://www.w3.org/1999/xlink">
<g stroke-linecap="round" id="Calque_2">
<path d="M62.70,232.61 C58.11,227.65 47.23,215.68 42.52,208.70 C38.25,202.30 30.95,189.21 28.11,182.29 C25.43,175.67 22.04,161.23 21.26,153.45 C20.46,145.36 21.14,131.37 22.35,124.13 C23.57,116.93 27.51,103.45 31.03,95.91 C34.24,89.10 42.64,75.54 46.92,70.50 C51.93,64.63 62.89,54.32 69.14,49.61 C74.51,45.59 88.93,37.69 96.18,34.68 C104.20,31.37 118.54,27.67 126.20,26.52 C133.86,25.39 148.71,24.74 157.43,25.56 C165.32,26.32 181.63,29.64 188.06,31.91 C195.54,34.57 209.36,41.19 216.05,45.32 C221.78,48.87 234.23,59.32 239.52,64.87 C245.35,71.02 253.52,82.70 257.05,89.19 C260.56,95.69 265.81,108.77 267.67,116.81 C269.34,124.10 271.01,139.58 270.73,146.14 C270.39,153.67 268.05,168.15 265.87,175.29 C263.84,181.83 257.29,195.58 253.06,202.46 C245.52,214.65 230.10,230.67 227.28,233.61" fill="none" stroke="rgb(0, 0, 0)" stroke-width="7.24" stroke-opacity="1.00" stroke-linejoin="round"/>
<path d="M60.61,232.41 L26.05,267.97" fill="none" stroke="rgb(0, 0, 0)" stroke-width="7.00" stroke-opacity="1.00" stroke-linejoin="round"/>
<path d="M226.90,234.41 L259.96,267.97" fill="none" stroke="rgb(0, 0, 0)" stroke-width="7.00" stroke-opacity="1.00" stroke-linejoin="round"/>
</g>
</svg>
